<?xml version="1.0" encoding="UTF-8"?>
<svg version="1.1" xmlns="http://www.w3.org/2000/svg" width="128" height="128">
<path d="M0 0 C1.89646998 0.11493757 3.79218332 0.24239642 5.6875 0.375 C6.74324219 0.44460937 7.79898438 0.51421875 8.88671875 0.5859375 C12 1 12 1 17 3 C17 6.63 17 10.26 17 14 C18.0725 13.360625 19.145 12.72125 20.25 12.0625 C22.8117767 10.53528697 25.07730257 9.61428375 28 9 C29.12721436 10.26886964 30.25168658 11.54017562 31.375 12.8125 C32.00148438 13.52019531 32.62796875 14.22789063 33.2734375 14.95703125 C37 19.36651584 37 19.36651584 37 22.4375 C35.59844883 26.02897488 33.20432427 26.99729733 30 29 C29.505 30.485 29.505 30.485 29 32 C34.445 32.495 34.445 32.495 40 33 C40.07945281 38.80005542 40.09209147 44.29685566 39 50 C38.67 50.33 38.34 50.66 38 51 C35.97591245 50.90997602 33.95455713 50.75358962 31.9375 50.5625 C30.83277344 50.46066406 29.72804688 50.35882813 28.58984375 50.25390625 C27.73519531 50.17011719 26.88054687 50.08632813 26 50 C26.639375 51.134375 27.27875 52.26875 27.9375 53.4375 C28.47697266 54.39462891 28.47697266 54.39462891 29.02734375 55.37109375 C29.8972513 56.97878146 29.8972513 56.97878146 31 58 C31.390625 60.2890625 31.390625 60.2890625 31 63 C28.734375 65.2734375 28.734375 65.2734375 25.75 67.375 C24.77546875 68.08398438 23.8009375 68.79296875 22.796875 69.5234375 C20 71 20 71 17.78125 70.87890625 C15.04250913 69.52755385 13.69667192 67.48441245 12 65 C12 64.34 12 63.68 12 63 C11.01 63 10.02 63 9 63 C8.93941406 63.62648437 8.87882812 64.25296875 8.81640625 64.8984375 C8.69072266 66.12433594 8.69072266 66.12433594 8.5625 67.375 C8.44068359 68.59316406 8.44068359 68.59316406 8.31640625 69.8359375 C8 72 8 72 7 74 C1.55299453 74.11116338 -3.63562868 74.00581962 -9 73 C-10 72 -10 72 -10.1328125 70.0390625 C-10.13023438 69.24242188 -10.12765625 68.44578125 -10.125 67.625 C-10.12886719 66.43777344 -10.12886719 66.43777344 -10.1328125 65.2265625 C-10 63 -10 63 -9 60 C-12.14191424 61.53604696 -15.08596738 63.05731159 -18 65 C-21.25047068 64.85484341 -22.63058116 64.34583891 -25.01953125 62.109375 C-25.61121094 61.33078125 -26.20289063 60.5521875 -26.8125 59.75 C-27.41707031 58.98171875 -28.02164063 58.2134375 -28.64453125 57.421875 C-30.20982242 54.62510115 -30.55042088 53.15193844 -30 50 C-28.50390625 48.48828125 -28.50390625 48.48828125 -26.5625 47.3125 C-23.752744 45.65808423 -23.752744 45.65808423 -22 43 C-22.61488281 42.95101562 -23.22976562 42.90203125 -23.86328125 42.8515625 C-24.67152344 42.77679688 -25.47976562 42.70203125 -26.3125 42.625 C-27.11300781 42.55539063 -27.91351563 42.48578125 -28.73828125 42.4140625 C-31 42 -31 42 -34 40 C-33.34 34.72 -32.68 29.44 -32 24 C-28.04 24 -24.08 24 -20 24 C-21.75015003 18.88440976 -21.75015003 18.88440976 -25 15 C-33.7641048 14.72177445 -41.77321141 18.39863867 -48.40234375 24.046875 C-54.92638816 30.89894399 -58.50043642 38.90383597 -59.09375 48.3671875 C-58.77254851 57.38759609 -55.72670179 66.01089902 -50 73 C-47.25397307 75.42388929 -44.45368867 77.64767239 -41.48828125 79.796875 C-37.57011284 83.26602254 -36.20366285 86.45583494 -35.5234375 91.61328125 C-35.47445312 92.83402344 -35.42546875 94.05476563 -35.375 95.3125 C-35.57081753 99.47475505 -35.57081753 99.47475505 -34 103 C-32.43827255 103.08685603 -30.87270656 103.10702219 -29.30859375 103.09765625 C-27.89223633 103.09282227 -27.89223633 103.09282227 -26.44726562 103.08789062 C-24.95743164 103.07532227 -24.95743164 103.07532227 -23.4375 103.0625 C-22.44041016 103.05798828 -21.44332031 103.05347656 -20.41601562 103.04882812 C-17.94395151 103.03700007 -15.47200482 103.02051849 -13 103 C-11.86661224 99.59983671 -11.92917747 96.89208253 -11.875 93.3125 C-11.47569569 87.08464092 -10.34186466 83.75101579 -5.85546875 79.421875 C-3.68026544 77.75498236 -1.67263509 76.64791154 1 76 C2.485 77.98 2.485 77.98 4 80 C3.43410156 80.48210937 2.86820312 80.96421875 2.28515625 81.4609375 C1.55167969 82.09257813 0.81820312 82.72421875 0.0625 83.375 C-0.66839844 84.00148438 -1.39929688 84.62796875 -2.15234375 85.2734375 C-6.27726108 89.12801141 -5.31212468 94.28988016 -5.5234375 99.6171875 C-6.033463 103.23753247 -6.85934183 104.19981791 -9 107 C-9.50345018 110.10161184 -9.50345018 110.10161184 -9.5625 113.4375 C-9.76004258 118.60353767 -10.36670177 122.358922 -13.1015625 126.78125 C-16.26836206 128.81425712 -19.7325173 128.51230568 -23.375 128.5 C-24.13039062 128.52835938 -24.88578125 128.55671875 -25.6640625 128.5859375 C-29.71436291 128.60009939 -31.57674804 128.29043461 -35 125.94140625 C-37.52008711 122.23510626 -37.59847657 119.88901554 -37.625 115.4375 C-37.67484049 110.40859431 -37.71428865 107.82629111 -41 104 C-41.6875 100.25 -41.6875 100.25 -42 97 C-42.66 97.66 -43.32 98.32 -44 99 C-46.9628331 98.60495559 -49.38326241 97.40182371 -52 96 C-52.66 98.31 -53.32 100.62 -54 103 C-57.96 103 -61.92 103 -66 103 C-66.99 100.69 -67.98 98.38 -69 96 C-69.7425 96.515625 -70.485 97.03125 -71.25 97.5625 C-74 99 -74 99 -75.96484375 98.7578125 C-79.48958688 97.44533617 -81.91200933 95.0996975 -84 92 C-84 87.9891201 -83.22912939 86.34369408 -81 83 C-83.31 82.34 -85.62 81.68 -88 81 C-88 76.71 -88 72.42 -88 68 C-84.535 67.505 -84.535 67.505 -81 67 C-81.515625 66.278125 -82.03125 65.55625 -82.5625 64.8125 C-84 62 -84 62 -84.0625 59.5625 C-82.53197359 55.87123042 -80.31303758 53.25126891 -77 51 C-73.37666263 51 -72.04505903 51.96996065 -69 54 C-68.34 51.69 -67.68 49.38 -67 47 C-66.01 47 -65.02 47 -64 47 C-64.12375 45.6078125 -64.12375 45.6078125 -64.25 44.1875 C-64.19322565 34.81973168 -59.30988536 26.59318633 -53 20 C-45.58467717 13.22027627 -36.71471121 9.09228938 -26.6875 8.6875 C-21.21151357 8.38061945 -21.21151357 8.38061945 -16.5 5.875 C-14 4 -14 4 -11.4375 3.875 C-7.88561484 5.51433161 -6.32720953 7.87489006 -4 11 C-2.03698408 7.49461443 -1.04097612 3.86648272 0 0 Z M4 6 C3.79503906 6.63808594 3.59007813 7.27617188 3.37890625 7.93359375 C3.10949219 8.75988281 2.84007813 9.58617187 2.5625 10.4375 C2.29566406 11.26121094 2.02882813 12.08492187 1.75390625 12.93359375 C1 15 1 15 0 16 C-3.25 16.4375 -3.25 16.4375 -7 16 C-9.13463663 14.18317528 -10.39046455 12.34114247 -12 10 C-13.98 11.32 -15.96 12.64 -18 14 C-17.505 14.845625 -17.01 15.69125 -16.5 16.5625 C-14.82861412 20.39275931 -14.52295028 22.86556913 -15 27 C-18.20380017 29.13586678 -19.01939967 29.23132175 -22.6875 29.125 C-23.49574219 29.10695313 -24.30398437 29.08890625 -25.13671875 29.0703125 C-25.75160156 29.04710938 -26.36648437 29.02390625 -27 29 C-27.33 31.64 -27.66 34.28 -28 37 C-27.36191406 37.12117188 -26.72382812 37.24234375 -26.06640625 37.3671875 C-25.24011719 37.53476562 -24.41382813 37.70234375 -23.5625 37.875 C-22.73878906 38.03742187 -21.91507812 38.19984375 -21.06640625 38.3671875 C-20.38449219 38.57601562 -19.70257813 38.78484375 -19 39 C-17.43569752 42.12860495 -17.64372716 44.55602925 -18 48 C-20.5 50.4375 -20.5 50.4375 -23 52 C-22.43628586 55.26954202 -21.50037734 56.82575883 -19 59 C-18.13375 58.319375 -17.2675 57.63875 -16.375 56.9375 C-13 55 -13 55 -9.75 55.125 C-7 56 -7 56 -5 58 C-4.8046875 60.3828125 -4.8046875 60.3828125 -4.875 63.125 C-4.89304687 64.03507812 -4.91109375 64.94515625 -4.9296875 65.8828125 C-4.95289062 66.58148438 -4.97609375 67.28015625 -5 68 C-2.36 68.33 0.28 68.66 3 69 C3.10957031 68.37351563 3.21914062 67.74703125 3.33203125 67.1015625 C3.49058594 66.28429687 3.64914063 65.46703125 3.8125 64.625 C3.96332031 63.81289063 4.11414063 63.00078125 4.26953125 62.1640625 C5 60 5 60 8 58 C13.56233457 58.12360743 16.09539967 60.37429969 20 64 C21.65 62.35 23.3 60.7 25 59 C23.9790625 57.700625 23.9790625 57.700625 22.9375 56.375 C21 53 21 53 21.1875 49.6875 C22 47 22 47 23 46 C24.84891946 45.76636119 26.70488031 45.58696365 28.5625 45.4375 C29.57441406 45.35371094 30.58632812 45.26992188 31.62890625 45.18359375 C32.41136719 45.12300781 33.19382813 45.06242187 34 45 C34.33 42.69 34.66 40.38 35 38 C30.05 37.01 30.05 37.01 25 36 C23.78755365 29.69527897 23.78755365 29.69527897 24.6875 26.75 C26.21926281 24.70764958 27.88329973 23.41113351 30 22 C29.34 20.35 28.68 18.7 28 17 C23.95377498 16.63019987 23.95377498 16.63019987 21 19 C17.4375 19.25 17.4375 19.25 14 19 C11.50600835 16.50600835 11.67067912 15.38557427 11.4375 11.9375 C11.46018047 8.66160436 11.46018047 8.66160436 10 6 C8.00041636 5.95919217 5.99954746 5.95745644 4 6 Z M-76 58 C-76.99 59.485 -76.99 59.485 -78 61 C-77.01 62.485 -77.01 62.485 -76 64 C-75.875 67.1875 -75.875 67.1875 -76 70 C-79.465 71.485 -79.465 71.485 -83 73 C-83 74.32 -83 75.64 -83 77 C-80.69 77.99 -78.38 78.98 -76 80 C-75.82057837 83.94727588 -75.90649311 86.5980513 -78 90 C-77.34 90.66 -76.68 91.32 -76 92 C-74.14733927 91.70514846 -74.14733927 91.70514846 -72 91 C-70.00211562 90.65421232 -68.00240549 90.31856451 -66 90 C-64.68 92.64 -63.36 95.28 -62 98 C-60.68 98 -59.36 98 -58 98 C-57.01 95.36 -56.02 92.72 -55 90 C-51.14354879 89.77963136 -48.50776784 90.39644899 -45 92 C-44.01 91.01 -43.02 90.02 -42 89 C-43.45255699 85.17053157 -45.42895561 83.87949705 -49 82 C-49.78375 82.639375 -50.5675 83.27875 -51.375 83.9375 C-55.88811949 87.48352245 -59.3951594 87.51482938 -65 87 C-68.84231902 85.58001254 -69.78717352 84.36180502 -71.875 80.8125 C-73.15899012 76.46120015 -73.4926175 73.30597533 -72 69 C-69.38393026 65.74758897 -66.87255015 63.57770562 -63 62 C-63 61.01 -63 60.02 -63 59 C-64.093125 59.20625 -65.18625 59.4125 -66.3125 59.625 C-70 60 -70 60 -73 58 C-73.99 58 -74.98 58 -76 58 Z M-65.6875 69.125 C-68.22505782 71.79608855 -68.22505782 71.79608855 -68.5 75.0625 C-67.93332671 78.39170557 -67.55078958 79.77834456 -65 82 C-61.63825863 83.25411568 -61.63825863 83.25411568 -58 83 C-55.03949126 80.70800597 -55.03949126 80.70800597 -53 78 C-53.42152344 77.37351562 -53.84304687 76.74703125 -54.27734375 76.1015625 C-54.82519531 75.28429687 -55.37304688 74.46703125 -55.9375 73.625 C-56.48277344 72.81289062 -57.02804688 72.00078125 -57.58984375 71.1640625 C-59 69 -59 69 -60 67 C-63.17881179 66.68988221 -63.17881179 66.68988221 -65.6875 69.125 Z M-32 109 C-32 110.32 -32 111.64 -32 113 C-26.72 113 -21.44 113 -16 113 C-16 111.68 -16 110.36 -16 109 C-21.28 109 -26.56 109 -32 109 Z M-32 118 C-31.34 119.65 -30.68 121.3 -30 123 C-28.04196493 123.05389087 -26.08351091 123.09274217 -24.125 123.125 C-23.03445312 123.14820312 -21.94390625 123.17140625 -20.8203125 123.1953125 C-17.8628949 123.30060534 -17.8628949 123.30060534 -16 121 C-16 120.01 -16 119.02 -16 118 C-21.28 118 -26.56 118 -32 118 Z " fill="#F15928" transform="translate(88,0)"/>
<path d="M0 0 C4.72898073 2.79878451 7.38247001 5.72314264 9.29296875 10.93359375 C10.29089876 17.71951778 9.38681074 22.40505638 5.60546875 28.05859375 C1.80976143 31.85430107 -2.109577 34.00542003 -7.56640625 34.09375 C-14.17570994 33.63908314 -18.2202061 31.46798108 -22.70703125 26.49609375 C-26.03680243 21.68642427 -26.01384276 16.71841285 -25.39453125 11.05859375 C-23.7074743 6.19913622 -20.64561515 2.89264968 -16.39453125 0.05859375 C-11.12145443 -1.69909852 -5.23763712 -2.05916892 0 0 Z M-17.39453125 8.05859375 C-19.74040627 11.38822281 -20.66550272 14.03285418 -20.51953125 18.05859375 C-19.76645958 22.22452211 -17.83691679 24.47754504 -14.4921875 26.984375 C-10.75866861 28.89632601 -7.44294625 29.03021335 -3.39453125 28.05859375 C0.45766669 26.18986794 2.34191088 23.61733644 4.16796875 19.74609375 C4.71860638 15.10500512 4.17733322 11.98451932 1.60546875 8.05859375 C-1.38041057 5.38030501 -4.49044285 4.20620002 -8.45703125 3.55859375 C-12.33286785 4.21831062 -14.39567577 5.5262269 -17.39453125 8.05859375 Z " fill="#F15828" transform="translate(99.39453125,20.94140625)"/>
<path d="M0 0 C2.125 0.9375 2.125 0.9375 4 2 C4 2.99 4 3.98 4 5 C2.5328548 6.16704732 1.06560803 7.33396738 -0.40234375 8.5 C-5.16831532 12.97465301 -6.69887187 19.14273064 -7.09765625 25.484375 C-6.83320356 32.29667628 -3.98546665 39.28726129 1 44 C3.99583026 45.92796843 7.0605901 47.65842132 10.1796875 49.37890625 C14.67231868 51.96123581 17.22936371 54.20184865 19.3125 59.0625 C20 62 20 62 20 66 C18.35 66 16.7 66 15 66 C14.32845067 64.71086513 13.66291141 63.41859796 13 62.125 C12.62875 61.40570313 12.2575 60.68640625 11.875 59.9453125 C11 58 11 58 11 56 C10.27554688 55.7215625 9.55109375 55.443125 8.8046875 55.15625 C-1.59279706 50.86982182 -8.05663292 45.03848648 -12.4375 34.5625 C-14.03258733 24.46028022 -13.39986281 15.10493214 -7.24609375 6.56640625 C-2.86080871 1.43040435 -2.86080871 1.43040435 0 0 Z " fill="#F15827" transform="translate(47,24)"/>
<path d="M0 0 C4.15151338 1.44202476 7.29978445 3.5010438 10.8125 6.125 C11.78832031 6.84945313 12.76414062 7.57390625 13.76953125 8.3203125 C14.50558594 8.87460937 15.24164062 9.42890625 16 10 C15.67 11.32 15.34 12.64 15 14 C10.17335718 14 7.97521128 12.22636342 4.25 9.5 C3.64800781 9.07074219 3.04601562 8.64148437 2.42578125 8.19921875 C0.94451461 7.14117115 -0.52856622 6.07168009 -2 5 C-1.34 3.35 -0.68 1.7 0 0 Z " fill="#F15827" transform="translate(7,11)"/>
<path d="M0 0 C1.2065625 0.0309375 1.2065625 0.0309375 2.4375 0.0625 C3.10876129 2.4988189 3.77466354 4.93638883 4.4375 7.375 C4.62828125 8.06529297 4.8190625 8.75558594 5.015625 9.46679688 C5.81466184 12.42037949 6.4375 14.98809219 6.4375 18.0625 C4.7875 18.3925 3.1375 18.7225 1.4375 19.0625 C0.78855763 17.00097611 0.1434736 14.93823742 -0.5 12.875 C-1.03947266 11.15216797 -1.03947266 11.15216797 -1.58984375 9.39453125 C-2.40211931 6.61191659 -3.14828413 3.93055167 -3.5625 1.0625 C-2.5625 0.0625 -2.5625 0.0625 0 0 Z " fill="#F25927" transform="translate(26.5625,-0.0625)"/>
<path d="M0 0 C0.33 1.65 0.66 3.3 1 5 C-1.22481229 5.70146314 -3.45507368 6.38565954 -5.6875 7.0625 C-6.92886719 7.44535156 -8.17023437 7.82820313 -9.44921875 8.22265625 C-12.8531786 8.96785758 -14.71559076 8.99851065 -18 8 C-18 6.68 -18 5.36 -18 4 C-15.5636811 3.32873871 -13.12611117 2.66283646 -10.6875 2 C-9.65206055 1.71382812 -9.65206055 1.71382812 -8.59570312 1.421875 C-5.64212051 0.62283816 -3.07440781 0 0 0 Z " fill="#F15828" transform="translate(20,32)"/>
<path d="M0 0 C4.06498881 1.37184347 6.67396561 3.22068459 9.8125 6.125 C10.99779297 7.21167969 10.99779297 7.21167969 12.20703125 8.3203125 C12.79871094 8.87460938 13.39039062 9.42890625 14 10 C13.34 11.32 12.68 12.64 12 14 C7.82438593 14 6.46042213 12.16647522 3.3125 9.5 C2.31863281 8.6646875 1.32476562 7.829375 0.30078125 6.96875 C-0.45847656 6.3190625 -1.21773438 5.669375 -2 5 C-1.125 1.125 -1.125 1.125 0 0 Z " fill="#F15929" transform="translate(103,90)"/>
<path d="M0 0 C1.98 0 3.96 0 6 0 C6 4.95 6 9.9 6 15 C4.02 15 2.04 15 0 15 C0 10.05 0 5.1 0 0 Z " fill="#F05928" transform="translate(91,96)"/>
<path d="M0 0 C5.28 0 10.56 0 16 0 C16 1.65 16 3.3 16 5 C10.72 5 5.44 5 0 5 C0 3.35 0 1.7 0 0 Z " fill="#F05A29" transform="translate(104,79)"/>
<path d="M0 0 C1.65 0 3.3 0 5 0 C5 2.31 5 4.62 5 7 C3.35 7 1.7 7 0 7 C0 4.69 0 2.38 0 0 Z " fill="#F05929" transform="translate(62,94)"/>
</svg>
