<?xml version="1.0" encoding="UTF-8"?>
<svg version="1.1" viewBox="0 0 2048 2048" width="30" height="30" xmlns="http://www.w3.org/2000/svg">
<path transform="translate(239,44)" d="m0 0h42l26 3 27 6 23 8 25 12 14 8 18 12 13 10 10 9 8 7 15 16 10 13 10 15 12 21 11 24 17 51 6 2 304 1h689l36 2 32 4 24 5 25 7 21 7 30 13 29 15 24 15 13 9 13 10 13 11 11 9 9 9 8 7 12 13 13 15 8 11 14 20 13 22 13 25 12 28 9 27 7 28 4 20 3 22 1 18v37l-2 29-4 23-6 25-7 24-11 30-12 25-9 17-11 17-7 11-8 11-8 10-12 14-4 5h-2l-2 4-16 16-8 7-10 9-11 9-13 10-15 10-22 13-27 14-25 11-36 12-28 7-32 5-31 3-18 1-45 1h-764l-189 1-38 1-30 2-28 4-23 5-24 8-22 9-16 8-17 9-16 11-17 13-13 11-10 9-4 2v2l-7 6-9 11-8 9-20 30-9 16-11 22-8 20-8 28-5 23-3 22-1 15v20l2 22 5 28 8 30 8 22 12 26 12 20 12 17 10 13 11 12 7 8 15 14 12 10 15 11 15 10 21 12 17 9 19 8 22 8 26 6 17 3 36 3 26 1 696 1-9-10-7-8-35-35v-2l-4-2-7-7-7-8-95-95-7-8-11-12-10-15-5-13 1-8 4-10 6-10 4-5 14-9 10-4h11l10 4 10 6 11 9 15 14 201 201 6 5 7 8 15 15 7 8 8 10 7 12 3 8v9l-4 10-10 14-11 12-7 8-4 5h-2l-2 4-216 216-8 7-13 12-14 9-7 3h-13l-13-5-10-6-9-11-7-16-1-9 10-19 14-17 11-11 7-8 4-2 2-4 77-77 7-8 11-11h2l2-4 6-5 18-18 8-7 19-19 2-4h-197l-522-1-44-3-27-4-36-9-30-10-26-11-16-8-19-10-22-14-18-13-13-11-11-9-10-10-7-6-7-8-9-9-7-8-10-12-10-13-12-18-9-15-10-18-14-31-10-28-8-28-6-30-3-27v-54l3-27 7-35 8-28 12-32 14-29 7-13 12-20 11-15 8-11 14-17 10-11 7-8 5-4 13-13 28-22 17-12 17-11 23-13 32-15 36-12 21-6 26-5 35-4 38-2 1012-1 35-2 32-4 24-5 20-6 21-8 26-12 26-15 10-7 13-9 11-9 7-6h2v-2l8-7 12-12 7-8 8-9 6-8 7-10 12-19 9-17 8-18 12-36 5-23 4-27v-50l-4-28-5-24-6-19-8-21-11-23-10-17-16-24-11-14-14-15-10-10-11-9-14-11-24-16-21-12-25-12-21-8-19-6-29-7-23-3-35-2h-959l-32 1-2 1-4 21-9 26-11 24-9 16-10 16-8 11-13 16-17 17-11 9-8 7-13 9-21 12-19 9-24 9-19 5-31 6-14 2-24 1-23-2-30-5-27-8-20-8-25-13-18-12-16-13-15-14-14-14-9-11-14-19-11-19-8-16-8-19-8-23-5-18-2-6v-81l5-16 12-36 12-26 10-18 11-17 9-12 11-13 13-14 11-9 12-10 16-11 21-12 26-12 26-8 27-5zm3 86-19 3-24 7-18 8-14 8-17 13-16 15-9 10-14 21-9 17-8 21-4 17-3 26v15l2 20 4 20 5 15 12 25 9 14 11 14 19 19 17 12 15 9 19 8 22 7 19 3 13 1h15l29-4 24-7 20-9 17-10 13-10 10-9 12-12 11-14 11-18 8-18 5-15 4-22 1-11v-28l-4-28-4-14-6-15-8-17-14-21-9-10-1-2h-2l-2-4-10-9-16-12-21-12-19-8-13-4-22-4-9-1z" fill="#EF5A29"/>
<path transform="translate(1776,1437)" d="m0 0h18l25 2 29 5 22 6 20 8 22 11 19 12 12 9 14 11 7 6v2l4 2 8 8 7 8 14 18 11 17 9 16 12 25 10 28 7 24 2 6v72l-9 32-10 30-8 17-13 23-13 18-13 16-9 10-4 5-8 7-11 10-18 13-14 9-14 8-21 9-24 8-31 7-18 3-11 1h-34l-22-3-24-5-24-7-21-9-19-10-19-12-16-13-10-9-13-12-9-10-11-14-9-13-12-20-8-16-10-25-6-18-5-24-3-26v-30l3-27 6-25 7-22 6-15 8-17 13-22 14-20 8-9 7-8 15-15 11-9 10-8 15-10 17-10 24-11 27-9 31-6 16-2zm-6 87-21 3-22 6-13 5-15 8-18 12-11 10-8 7-11 12-10 14-9 16-7 15-7 21-4 17-2 19v23l3 22 6 21 11 25 9 15 8 11 12 14 7 7 11 9 10 7 15 9 25 11 13 4 20 4 12 1h21l18-2 22-5 22-8 16-8 18-12 14-12 9-8 7-8 9-12 9-14 9-19 5-15 5-25 1-11v-27l-2-18-6-25-5-13-8-16-8-14-11-14-12-13-11-10-19-13-18-10-17-7-21-6-23-3z" fill="#EF5A29"/>
<path transform="translate(854,1707)" d="m0 0 5 1 3 3h19l7 1 5-2 5 1 6-1 4 1 2-2h4v2l3 1v2l4-2 1-4 4 1 3 1 4-1 1 4 1 3 3 1h-2l-2 4h-11v-2h-2v-3l-3 1h-3l-1 2-7 2h-9l-8 1-5-1-2 1h-6l-1 4-4-1-2-3-11 1-3 4 11 1v1l-6 1h20l9 1h17l17-1h27l9-1h22l35 2 12 1 6 1 13 1 5 2h6l1 3h31l1-2h4v2l12-1 5-1 4 1 14-1 5-3 18-3 8-3h11l6-1 1 2v6l-5 5v1h-674l1-2h52l21-1 3-1 6-1h16v-2l6 1 1-1 19-1 25-1 8-1 16-1 3-1 25-1h16 2l12-1 19 2v-2l10 1 10-1 2 1 14-1 9-1v-4l-2-1 3-1 1-2h8l7 2 1-3h2v-2l7-1 2-4 7-1 9 5v-2l8-1z" fill="#E05228"/>
<path transform="translate(1339,1037)" d="m0 0 7 2v1h20v2l9-2 10 1v2h-125l1-3 9 1 1-3h9v3l19-3h34z" fill="#E05228"/>
<path transform="translate(736,1709)" d="m0 0h5l3 2 2 5v3l2 1-4 1-1-2-7 3h-5v-2l-9-1-6 1-3-1-1 2-9-4-2-2h3v-2l5-1 4 1 6 2 9-3h5l3-1z" fill="#E05228"/>
<path transform="translate(1039,1680)" d="m0 0 8 2 1-2 5 2 6-2h6l5 1 5 2h5v3l3 2-1 2h-8l-1-2h-8l3 2h-18l-5-2-1-4-4-1-2 1z" fill="#E05228"/>
<path transform="translate(761,1712)" d="m0 0 4 1v2h2l1-2 6 2-1 4h-6l-2-2v2h-2l-2 4-5-1-3-3-4-3v-2l8-1z" fill="#E05228"/>
<path transform="translate(434,289)" d="m0 0 2 1 1 8v11l-2 9h-1z" fill="#E05228"/>
<path transform="translate(1490,995)" d="m0 0h2v5l-2 4-5 1-1-4 4-5z" fill="#E05228"/>
<path transform="translate(839,1723)" d="m0 0 8 1v4l-8 1-2-2z" fill="#EF5A29"/>
<path transform="translate(1554,997)" d="m0 0h2l1 1h3l1 3-5 4-2-4z" fill="#E05228"/>
<path transform="translate(934,1702)" d="m0 0 1 2h5l-3 1-1 5-1-2h-3l-1-4z" fill="#E05228"/>
</svg>
