<?xml version="1.0" standalone="no"?>
<!DOCTYPE svg PUBLIC "-//W3C//DTD SVG 20010904//EN"
 "http://www.w3.org/TR/2001/REC-SVG-20010904/DTD/svg10.dtd">
<svg version="1.0" xmlns="http://www.w3.org/2000/svg"
 width="30" height="30" viewBox="0 0 512.000000 512.000000"
 preserveAspectRatio="xMidYMid meet">

<g transform="translate(0.000000,512.000000) scale(0.100000,-0.100000)"
fill="#f15a29" stroke="none">
<path d="M2390 5109 c-323 -37 -658 -174 -909 -372 -301 -239 -518 -558 -622
-917 -53 -181 -62 -254 -68 -540 l-6 -275 -95 -6 c-55 -4 -114 -14 -140 -24
-114 -46 -209 -132 -268 -242 -61 -115 -62 -128 -62 -664 0 -456 1 -491 20
-550 48 -157 172 -281 328 -329 58 -18 93 -20 359 -20 l295 0 34 34 34 34 0
834 c0 831 0 833 -21 868 -33 54 -46 59 -143 60 l-88 0 5 253 c5 286 17 367
77 548 173 521 603 909 1140 1029 277 62 598 40 860 -57 511 -190 863 -595
991 -1138 18 -76 22 -132 26 -362 l5 -273 -84 0 c-97 0 -121 -11 -149 -74 -18
-39 -19 -81 -19 -854 0 -892 -3 -855 60 -887 19 -10 58 -15 115 -15 86 0 86 0
74 -22 -23 -43 -175 -185 -253 -236 -140 -91 -307 -148 -467 -159 l-87 -6 -7
34 c-4 19 -25 72 -47 118 -33 68 -56 101 -122 166 -92 91 -169 134 -300 167
-304 77 -635 -111 -732 -416 -52 -164 -40 -309 37 -465 109 -221 353 -364 594
-348 165 11 338 94 440 210 53 60 120 187 130 246 7 40 8 41 47 41 81 0 255
32 355 65 276 92 491 256 661 506 l72 106 49 7 c116 15 241 80 301 157 17 20
43 64 58 96 l27 58 0 525 0 525 -31 81 c-82 212 -238 356 -402 371 l-59 6 -6
251 c-6 262 -16 355 -61 526 -114 437 -413 834 -816 1083 -319 196 -746 289
-1130 246z m-1350 -3024 l0 -665 -187 0 c-177 0 -191 2 -238 24 -60 28 -97 66
-124 126 -20 43 -21 64 -21 496 0 511 1 518 72 599 69 78 92 85 311 85 l187 0
0 -665z m3424 655 c50 -18 112 -88 147 -162 l34 -73 3 -460 c2 -308 0 -472 -7
-497 -6 -20 -27 -50 -46 -67 -55 -48 -117 -61 -297 -61 l-158 0 0 665 0 665
149 0 c82 0 161 -4 175 -10z m-1592 -1772 c73 -34 152 -112 186 -186 24 -51
27 -69 27 -162 0 -91 -3 -112 -25 -155 -50 -103 -158 -182 -275 -204 -159 -29
-333 64 -402 215 -94 207 10 438 230 510 67 22 190 13 259 -18z"/>
</g>
</svg>
