<?xml version="1.0" encoding="UTF-8"?>
<svg version="1.1" xmlns="http://www.w3.org/2000/svg" width="128" height="128">
<path d="M0 0 C3.15319399 1.55341175 5.43662214 3.88579746 7.875 6.359375 C8.38160156 6.84599609 8.88820312 7.33261719 9.41015625 7.83398438 C12.42980946 10.8577072 13.125 11.59392826 13.125 16.046875 C11.475 16.376875 9.825 16.706875 8.125 17.046875 C8.08245644 19.04642246 8.08419217 21.04729136 8.125 23.046875 C9.17554601 24.29347824 9.17554601 24.29347824 11.5 24.421875 C12.799375 24.23625 12.799375 24.23625 14.125 24.046875 C15.9874438 21.63828786 15.9874438 21.63828786 17.125 19.046875 C21.72274026 19.90736154 24.23515843 22.64183845 27.4375 25.859375 C28.00017578 26.39369141 28.56285156 26.92800781 29.14257812 27.47851562 C30.73828125 29.06640625 30.73828125 29.06640625 33.125 32.046875 C32.69462244 36.50149904 29.64725859 38.86231065 26.5625 41.796875 C26.04236328 42.30347656 25.52222656 42.81007812 24.98632812 43.33203125 C23.70589916 44.57721905 22.41632446 45.81299002 21.125 47.046875 C17.96384224 45.67703997 17.1322908 45.0578112 15.125 42.046875 C12.54119823 41.79656523 12.54119823 41.79656523 10.125 42.046875 C9.35257731 43.88388289 9.35257731 43.88388289 9.125 46.046875 C10.64801613 48.0050386 11.90726023 48.93800511 14.125 50.046875 C13.72741254 54.98057398 11.25305231 57.58792259 7.875 60.921875 C7.15763672 61.68757813 7.15763672 61.68757813 6.42578125 62.46875 C4.15578911 64.74489388 2.81629975 66.027064 -0.46484375 66.12109375 C-3.36164949 64.82997288 -5.02329169 63.2953093 -7.1875 60.984375 C-7.88488281 60.25089844 -8.58226562 59.51742187 -9.30078125 58.76171875 C-9.82027344 58.19582031 -10.33976562 57.62992188 -10.875 57.046875 C-11.52726562 57.38460937 -12.17953125 57.72234375 -12.8515625 58.0703125 C-20.30891188 61.87598047 -20.30891188 61.87598047 -24.1875 63.046875 C-27.11693626 63.92470281 -27.11693626 63.92470281 -29.5 66.671875 C-30.28375 67.455625 -31.0675 68.239375 -31.875 69.046875 C-33.195 69.046875 -34.515 69.046875 -35.875 69.046875 C-35.72848498 64.21187945 -33.25056725 61.72924525 -29.91796875 58.5546875 C-26.71552695 56.19112624 -23.76684901 55.76038065 -19.875 55.046875 C-18.885 54.386875 -17.895 53.726875 -16.875 53.046875 C-17.535 51.726875 -18.195 50.406875 -18.875 49.046875 C-19.6175 49.871875 -20.36 50.696875 -21.125 51.546875 C-23.875 54.046875 -23.875 54.046875 -27.875 54.046875 C-28.205 53.056875 -28.535 52.066875 -28.875 51.046875 C-28.2975 50.345625 -27.72 49.644375 -27.125 48.921875 C-24.89731088 46.07538334 -24.55306197 44.97299615 -23.8125 41.609375 C-22.84526927 38.29315536 -22.14341914 37.23739204 -19.27734375 35.203125 C-17.30229983 34.16335994 -15.30072055 33.17210848 -13.2734375 32.23828125 C-10.74084298 31.28029876 -10.74084298 31.28029876 -9.875 29.046875 C-10.42961914 29.2641626 -10.98423828 29.4814502 -11.55566406 29.70532227 C-14.07449895 30.68478138 -16.59951564 31.64719845 -19.125 32.609375 C-20.43404297 33.12274414 -20.43404297 33.12274414 -21.76953125 33.64648438 C-22.61386719 33.96552734 -23.45820313 34.28457031 -24.328125 34.61328125 C-25.10317383 34.91177979 -25.87822266 35.21027832 -26.67675781 35.51782227 C-29.13468408 36.10937338 -30.51003708 35.85953656 -32.875 35.046875 C-32.37201212 30.64573103 -30.78727269 28.33492481 -27.875 25.046875 C-33.05843082 29.60421727 -35.41427066 33.90090133 -36.875 40.609375 C-38.1402478 46.30579552 -39.71424944 50.07155802 -44.09375 54.04296875 C-45.875 55.046875 -45.875 55.046875 -49.875 55.046875 C-49.55612988 51.43301366 -48.9256872 50.10276089 -46.4375 47.359375 C-43.52737567 43.97957377 -42.80993548 40.48251145 -42.0625 36.171875 C-40.71761278 29.78347809 -38.93266813 25.81872192 -33.97265625 21.33203125 C-31.60338475 19.8804664 -29.61170788 19.42287487 -26.875 19.046875 C-26.93300781 18.45519531 -26.99101562 17.86351563 -27.05078125 17.25390625 C-27.29756642 12.93164029 -27.2998694 10.69745626 -24.875 6.984375 C-21.0135717 4.49053589 -18.34514676 4.33489598 -13.875 5.046875 C-10.875 6.046875 -10.875 6.046875 -8.875 7.046875 C-8.18664063 6.27150391 -8.18664063 6.27150391 -7.484375 5.48046875 C-6.87078125 4.82175781 -6.2571875 4.16304687 -5.625 3.484375 C-5.02171875 2.82308594 -4.4184375 2.16179688 -3.796875 1.48046875 C-1.875 0.046875 -1.875 0.046875 0 0 Z M-2.6796875 8.83203125 C-4.05884047 10.34909951 -5.4338571 11.8699385 -6.8046875 13.39453125 C-8.875 15.046875 -8.875 15.046875 -11.0234375 14.921875 C-13.43910338 13.7802945 -14.44469519 12.26384745 -15.875 10.046875 C-19.16575996 10.42591708 -19.16575996 10.42591708 -21.875 12.046875 C-22.37559916 14.46169913 -22.37559916 14.46169913 -21.875 17.046875 C-19.46641286 18.9093188 -19.46641286 18.9093188 -16.875 20.046875 C-17.38103992 22.21561752 -17.87483813 24.04655127 -18.875 26.046875 C-17.48474609 25.70462891 -17.48474609 25.70462891 -16.06640625 25.35546875 C-14.86886719 25.06800781 -13.67132813 24.78054687 -12.4375 24.484375 C-11.24253906 24.19433594 -10.04757813 23.90429688 -8.81640625 23.60546875 C-7.84574219 23.42113281 -6.87507813 23.23679687 -5.875 23.046875 C-4.3255907 24.5962843 -4.44447285 26.08436958 -4.25 28.234375 C-4.26024652 31.45178123 -4.4318158 32.60554512 -6.7421875 34.90625 C-9.7623857 36.90651241 -12.81337477 38.57688466 -16.125 40.04296875 C-18.17730131 40.94997214 -18.17730131 40.94997214 -18.625 43.671875 C-18.7075 44.455625 -18.79 45.239375 -18.875 46.046875 C-18.19050781 46.07652344 -17.50601563 46.10617188 -16.80078125 46.13671875 C-12.47345965 47.48286819 -10.12463686 50.36972296 -7.0625 53.609375 C-6.46501953 54.22490234 -5.86753906 54.84042969 -5.25195312 55.47460938 C-3.7837379 56.98980749 -2.32810447 58.51717938 -0.875 60.046875 C2.45259923 58.49492746 4.61080485 56.74065551 7.125 54.046875 C6.6609375 53.2734375 6.6609375 53.2734375 6.1875 52.484375 C4.78551361 49.26805328 4.30949348 46.55225121 4.125 43.046875 C5.47062399 40.09931768 6.21054544 38.50410228 9.125 37.046875 C14.06769981 36.8037914 17.61509758 36.79192379 22.125 39.046875 C23.775 37.066875 25.425 35.086875 27.125 33.046875 C24.815 30.736875 22.505 28.426875 20.125 26.046875 C19.795 26.706875 19.465 27.366875 19.125 28.046875 C15.06806451 29.39918683 11.3623627 29.71230921 7.125 29.046875 C3.78761795 26.36068944 3.21697122 24.78264472 2.6875 20.546875 C3.14138618 16.91578552 3.99356405 14.97759943 6.125 12.046875 C4.50160195 10.33803495 2.83180947 8.67240783 1.125 7.046875 C-1.06109227 6.81245859 -1.06109227 6.81245859 -2.6796875 8.83203125 Z " fill="#F15928" transform="translate(49.875,58.953125)"/>
<path d="M0 0 C1.32 0 2.64 0 4 0 C3.75955093 4.08763417 2.24929914 6.74603028 -0.703125 9.57421875 C-5.82010204 12.75057355 -12.16478394 13.73793037 -18 15 C-17.34 15.66 -16.68 16.32 -16 17 C-16.37436686 22.39768944 -17.89448977 27.33067877 -19.5625 32.4375 C-19.79646484 33.16904297 -20.03042969 33.90058594 -20.27148438 34.65429688 C-20.84267222 36.43780179 -21.42063123 38.21913583 -22 40 C-19.08126233 37.31940202 -17.43168436 35.05954905 -15.875 31.4375 C-14.34518772 28.51215364 -13.53643195 27.25592804 -10.52734375 25.8203125 C-7.8125 25.0625 -7.8125 25.0625 -5.20703125 24.53515625 C-2.80950941 24.15655219 -2.80950941 24.15655219 -1 22 C0.32 22 1.64 22 3 22 C2.62403791 24.78211944 2.32681541 26.5879284 0.5625 28.8125 C-1 30 -1 30 -3 30 C-3 30.66 -3 31.32 -3 32 C-1.35 32.33 0.3 32.66 2 33 C3.89298416 30.16052376 5.00341037 27.98465334 5.75 24.625 C7.35178068 19.97983602 9.95089134 16.81045727 14 14 C15.32 14 16.64 14 18 14 C17.69913343 17.51011003 17.2673884 18.75372121 14.625 21.1875 C11.51508306 24.51955386 10.82014086 27.15006395 9.7734375 31.5 C8.90168639 34.31778136 7.59619702 36.53074494 6 39 C6.66128906 39.60328125 7.32257813 40.2065625 8.00390625 40.828125 C9.27041016 42.02695313 9.27041016 42.02695313 10.5625 43.25 C11.40941406 44.03890625 12.25632812 44.8278125 13.12890625 45.640625 C15 48 15 48 15 50.0625 C13.78573431 52.41513977 12.35991193 53.9324469 10.4375 55.75 C9.47650391 56.67039062 9.47650391 56.67039062 8.49609375 57.609375 C8.00238281 58.06828125 7.50867188 58.5271875 7 59 C7.495 59.680625 7.99 60.36125 8.5 61.0625 C10.36986505 64.72431906 10.50848176 66.93214595 10 71 C8.20437595 73.75329021 6.94745078 75.52627461 4 77 C-1.55142419 77.41897541 -2.9712235 77.0172659 -8 74 C-10.97 76.97 -13.94 79.94 -17 83 C-21.77737198 81.08905121 -23.62722811 79.66186662 -27 76 C-28.2684375 76.495 -28.2684375 76.495 -29.5625 77 C-34.53874371 78.44763453 -38.18761149 78.94559401 -42.875 76.5 C-45.72668762 73.14507338 -46.3260434 70.36396557 -46 66 C-44.5625 62.5 -44.5625 62.5 -43 60 C-43.56589844 59.45730469 -44.13179688 58.91460937 -44.71484375 58.35546875 C-45.44832031 57.64003906 -46.18179688 56.92460938 -46.9375 56.1875 C-47.66839844 55.47980469 -48.39929687 54.77210937 -49.15234375 54.04296875 C-51 52 -51 52 -52 49 C-50.8828125 47.2734375 -50.8828125 47.2734375 -49.125 45.375 C-48.48046875 44.6634375 -47.8359375 43.951875 -47.171875 43.21875 C-45 41 -45 41 -42.703125 38.96875 C-37.86317664 34.61604477 -35.42068684 31.19422076 -33.4375 24.9375 C-31.26689921 18.2675744 -29.23636984 13.59116802 -23 10 C-19.21805961 8.65318089 -15.36051924 7.64073285 -11.43481445 6.80834961 C-6.12329588 5.63122061 -3.79709727 4.06687327 0 0 Z M-27.85766602 31.74414062 C-28.64842529 32.54013672 -29.43918457 33.33613281 -30.25390625 34.15625 C-31.10791016 35.01347656 -31.96191406 35.87070312 -32.84179688 36.75390625 C-33.73962891 37.66011719 -34.63746094 38.56632812 -35.5625 39.5 C-36.91504883 40.85931641 -36.91504883 40.85931641 -38.29492188 42.24609375 C-40.53218341 44.49519265 -42.76708747 46.74658467 -45 49 C-44.06409496 50.1055189 -43.12620142 51.20935453 -42.1875 52.3125 C-41.66542969 52.92738281 -41.14335938 53.54226562 -40.60546875 54.17578125 C-39.05721294 56.01591085 -39.05721294 56.01591085 -37.30078125 57.48046875 C-36 59 -36 59 -36 63 C-36.639375 63.226875 -37.27875 63.45375 -37.9375 63.6875 C-40.22094782 64.85338976 -40.22094782 64.85338976 -40.9375 67.4375 C-41.22868391 69.99799629 -41.22868391 69.99799629 -39.875 71.875 C-37.99799629 73.22868391 -37.99799629 73.22868391 -35.4375 72.9375 C-32.85338976 72.22094782 -32.85338976 72.22094782 -31.6875 69.9375 C-31.460625 69.298125 -31.23375 68.65875 -31 68 C-25.91664275 68.15404113 -23.64245282 71.02068432 -20.35546875 74.50390625 C-19.90816406 74.99761719 -19.46085937 75.49132812 -19 76 C-14.96104472 74.24238869 -12.61871787 71.66407963 -9.68359375 68.4609375 C-8 67 -8 67 -5 67 C-4.6596875 67.9590625 -4.6596875 67.9590625 -4.3125 68.9375 C-3.14661024 71.22094782 -3.14661024 71.22094782 -0.5625 71.9375 C1.99799629 72.22868391 1.99799629 72.22868391 3.875 70.875 C5.22868391 68.99799629 5.22868391 68.99799629 4.9375 66.4375 C4.22094782 63.85338976 4.22094782 63.85338976 1.9375 62.6875 C1.298125 62.460625 0.65875 62.23375 0 62 C0.56959153 58.37386801 1.92374534 56.74482259 4.5625 54.25 C5.52349609 53.32960938 5.52349609 53.32960938 6.50390625 52.390625 C6.99761719 51.93171875 7.49132812 51.4728125 8 51 C6.17093539 46.35614735 2.4630431 43.38913422 -1.09960938 40.06640625 C-5.64230096 35.69913152 -5.64230096 35.69913152 -6 32 C-5.34 31.67 -4.68 31.34 -4 31 C-6.89622873 31.07328913 -6.89622873 31.07328913 -10 32 C-11.94377249 34.4179421 -11.94377249 34.4179421 -13.25 37.4375 C-15.89873418 42.89873418 -15.89873418 42.89873418 -18 45 C-20.1640625 45.1953125 -20.1640625 45.1953125 -22.625 45.125 C-23.44226563 45.10695313 -24.25953125 45.08890625 -25.1015625 45.0703125 C-25.72804688 45.04710937 -26.35453125 45.02390625 -27 45 C-28.23922223 41.28233332 -27.57018942 39.56110463 -26.5625 35.8125 C-26.13130859 34.18248047 -26.13130859 34.18248047 -25.69140625 32.51953125 C-25.46324219 31.68808594 -25.23507813 30.85664063 -25 30 C-26.30318244 29.88592007 -26.30318244 29.88592007 -27.85766602 31.74414062 Z " fill="#F15A27" transform="translate(110,0)"/>
</svg>
