<?xml version="1.0" encoding="UTF-8"?>
<svg version="1.1" xmlns="http://www.w3.org/2000/svg" width="128" height="128">
<path d="M0 0 C4.96492499 2.30514375 7.43496819 5.21194062 10 10 C10.57443858 13.47214591 10.55936164 16.86276939 10.5 20.375 C10.52320312 21.73625 10.52320312 21.73625 10.546875 23.125 C10.51511171 28.63593163 9.72487207 32.55576542 6.93066406 37.33056641 C5.73224067 39.4803091 5.30354648 41.57162813 5 44 C9.455 45.98 9.455 45.98 14 48 C14.33 46.68 14.66 45.36 15 44 C18.0625 42.25 18.0625 42.25 21 41 C20.45276317 37.62537285 19.9451 35.91765 18 33 C17.72471886 30.34281259 17.58419142 27.84590431 17.5625 25.1875 C17.52962891 24.48818359 17.49675781 23.78886719 17.46289062 23.06835938 C17.42185484 19.08042718 17.84982262 16.69241788 20.40234375 13.55078125 C24.37403587 9.65075876 27.04806428 9.60935927 32.44921875 9.640625 C36.55868504 10.21960034 38.21349577 11.99914929 41 15 C42.56474126 18.12948252 42.22569951 21.44255602 42.25 24.875 C42.270625 25.59558594 42.29125 26.31617187 42.3125 27.05859375 C42.34512872 31.4879423 41.84598344 33.65971417 39 37 C39 38.32 39 39.64 39 41 C39.66386719 41.29132812 40.32773438 41.58265625 41.01171875 41.8828125 C50.63209448 46.34891393 50.63209448 46.34891393 53.21875 49.859375 C55.1474111 55.1439064 55.04539587 61.55164268 54 67 C51.00015678 70.00476907 48.05340624 71.75279808 44 73 C42.68 73 41.36 73 40 73 C40.125 70.6875 40.125 70.6875 41 68 C45.86206897 65 45.86206897 65 49 65 C49.31107839 59.91905298 49.43582178 55.01303983 46 51 C42.15370324 48.62419221 38.15934317 46.76046618 34 45 C34 43.35 34 41.7 34 40 C32.68 40 31.36 40 30 40 C30.25 37.625 30.25 37.625 31 35 C32.32467746 34.3162955 33.65863633 33.65035814 35 33 C37.48997529 29.08718168 37.02733622 25.50879703 36.58203125 21.0859375 C35.88237203 18.578434 35.05764059 17.57146775 33 16 C28.90568905 15.4556959 28.90568905 15.4556959 25.3671875 17.25390625 C22.89814583 20.40722518 22.85789683 24.0955462 23 28 C23.474375 28.94875 23.94875 29.8975 24.4375 30.875 C26.74668163 35.49336327 26.24371781 39.92705893 26 45 C22.04 46.98 22.04 46.98 18 49 C18.66386719 49.29132812 19.32773438 49.58265625 20.01171875 49.8828125 C25.72568699 52.53542841 29.46143941 54.74923267 33 60 C33.96070434 62.88211302 34.10581883 64.69850044 34.0625 67.6875 C34.05347656 68.49574219 34.04445313 69.30398437 34.03515625 70.13671875 C34.02355469 70.75160156 34.01195313 71.36648437 34 72 C32.68 72 31.36 72 30 72 C29.85304688 71.33613281 29.70609375 70.67226562 29.5546875 69.98828125 C27.85283365 63.15507603 27.85283365 63.15507603 23.14453125 58.09765625 C14.26595971 53.49474472 14.26595971 53.49474472 4.6875 52.2734375 C2.87153781 52.96697198 2.87153781 52.96697198 1.125 54.5 C-1.68840941 56.48593606 -3.55742 56.86499686 -7 57 C-10.63655436 55.72720597 -13.26735971 54.73264029 -16 52 C-23.03581709 52.7664015 -33.3200786 55.37337143 -38.1875 60.75 C-40.39262125 64.70401051 -41.8091526 68.64324123 -43 73 C-44.485 72.505 -44.485 72.505 -46 72 C-46.54241113 65.35546361 -45.94958619 61.44402421 -42 56 C-38.38824848 52.48586338 -34.62353528 50.81315109 -30 49 C-32.64 47.68 -35.28 46.36 -38 45 C-38 43.35 -38 41.7 -38 40 C-39.32 40 -40.64 40 -42 40 C-41.75 37.625 -41.75 37.625 -41 35 C-40.38125 34.71125 -39.7625 34.4225 -39.125 34.125 C-35.75103937 32.33878555 -35.29903581 29.50739668 -34 26 C-35.2375 25.896875 -36.475 25.79375 -37.75 25.6875 C-41.24899086 25.24082032 -43.56866226 24.73525496 -46 22 C-46 20.68 -46 19.36 -46 18 C-42.0507432 18.55105909 -38.65079826 19.38935371 -35 21 C-36.3089572 17.87802522 -36.3089572 17.87802522 -39 16 C-43.08908394 15.54480961 -43.08908394 15.54480961 -46.63671875 17.24609375 C-49.09806639 20.4126986 -49.13531968 24.08926126 -49 28 C-48.0520411 30.02518491 -47.04808041 32.02477154 -46 34 C-45.45381306 37.32221963 -45.19255548 40.6402389 -45 44 C-48.3501659 46.34511613 -51.49685792 48.24498574 -55.25 49.875 C-58.23372863 51.33839362 -58.86939981 51.75512464 -60.5 54.8125 C-61.04140077 58.26392992 -61.13952878 61.51178054 -61 65 C-60.071875 65.28875 -59.14375 65.5775 -58.1875 65.875 C-55 67 -55 67 -52 69 C-52 70.32 -52 71.64 -52 73 C-57.47235396 72.34852929 -62.03489463 70.96510537 -66 67 C-66.7096391 61.35700446 -67.24743072 54.92173888 -64.97265625 49.59375 C-61.359797 45.03013832 -56.37620194 42.92348558 -51 41 C-51.54723683 37.62537285 -52.0549 35.91765 -54 33 C-54.27528114 30.34281259 -54.41580858 27.84590431 -54.4375 25.1875 C-54.47037109 24.48818359 -54.50324219 23.78886719 -54.53710938 23.06835938 C-54.57814516 19.08042718 -54.15017738 16.69241788 -51.59765625 13.55078125 C-47.62596413 9.65075876 -44.95193572 9.60935927 -39.55078125 9.640625 C-35.44131496 10.21960034 -33.78650423 11.99914929 -31 15 C-29.43525874 18.12948252 -29.77430049 21.44255602 -29.75 24.875 C-29.729375 25.59558594 -29.70875 26.31617187 -29.6875 27.05859375 C-29.65487128 31.4879423 -30.15401656 33.65971417 -33 37 C-33 38.32 -33 39.64 -33 41 C-30.69 42.32 -28.38 43.64 -26 45 C-26 45.99 -26 46.98 -26 48 C-23.03 47.34 -20.06 46.68 -17 46 C-16.49113524 40.65691997 -17.87476148 38.26168888 -21 34 C-22.46810457 29.5956863 -22.26550881 25.30203489 -22.3125 20.6875 C-22.34150391 19.74970703 -22.37050781 18.81191406 -22.40039062 17.84570312 C-22.45377752 12.01831785 -21.95547216 8.59181869 -18 4 C-12.72867143 -1.00776214 -6.89190982 -0.92775709 0 0 Z M-16 10 C-15.46375 10.268125 -14.9275 10.53625 -14.375 10.8125 C-12 12 -12 12 -9.375 13.625 C-4.84409933 15.47092249 -0.82739702 15.25758838 4 15 C4.33 14.01 4.66 13.02 5 12 C2.05202298 7.88123086 2.05202298 7.88123086 -2 5 C-8.75145131 4.32485487 -11.21502726 5.21502726 -16 10 Z M-17 15 C-18.33066922 16.09954243 -18.33066922 16.09954243 -18.0546875 18.84375 C-17.70270786 26.00577059 -17.01448152 30.85167669 -13.05859375 36.8359375 C-11.73951295 39.53250859 -11.83272088 41.39828945 -12 44.375 C-12.17771524 46.81814254 -12.17771524 46.81814254 -12 49 C-10.03408798 51.47981735 -10.03408798 51.47981735 -7 52 C-3.15820417 51.18712004 -3.15820417 51.18712004 0 49 C0.04080783 47.00041636 0.04254356 44.99954746 0 43 C-2.31 43.33 -4.62 43.66 -7 44 C-7.33 42.68 -7.66 41.36 -8 40 C-7.113125 39.938125 -6.22625 39.87625 -5.3125 39.8125 C-0.70669704 38.68277475 1.65696234 36.20505829 4.1015625 32.19140625 C5.20260942 29.5058092 5.41854073 27.14042984 5.625 24.25 C5.69976562 23.26515625 5.77453125 22.2803125 5.8515625 21.265625 C5.90054688 20.51796875 5.94953125 19.7703125 6 19 C5.154375 19.03480469 4.30875 19.06960937 3.4375 19.10546875 C-4.52651109 19.29551901 -9.87868347 18.56065827 -17 15 Z " fill="#F15928" transform="translate(70,5)"/>
<path d="M0 0 C2.25 0 2.25 0 5 1 C7.05695657 3.99014453 9 7.313902 9 11 C13.29 11.66 17.58 12.32 22 13 C22.495 15.475 22.495 15.475 23 18 C21.56640625 19.4921875 21.56640625 19.4921875 19.5625 20.875 C16.56195816 23.53619485 16.03543456 24.71386591 15.53125 28.78515625 C15.48456762 32.53841991 15.69676377 36.26008653 16 40 C12.13799351 39.53947738 9.37213667 39.2050549 5.9375 37.3125 C3.03680967 35.66723473 3.03680967 35.66723473 -0.125 36.6875 C-1.79469847 37.44975365 -3.45115535 38.24608474 -5.0625 39.125 C-7.47427566 40.21418901 -9.37988823 40.06023245 -12 40 C-11.91878906 38.99839844 -11.83757813 37.99679688 -11.75390625 36.96484375 C-11.09937233 29.45361273 -11.09937233 29.45361273 -13.59375 22.62109375 C-15.50510627 20.85484518 -15.50510627 20.85484518 -17.56640625 19.4921875 C-18.03949219 18.99976562 -18.51257812 18.50734375 -19 18 C-18.67 16.35 -18.34 14.7 -18 13 C-13.71 12.34 -9.42 11.68 -5 11 C-4.34 9.02 -3.68 7.04 -3 5 C-2.0436126 3.30792999 -1.05589069 1.63183107 0 0 Z M1 9 C-1.31592022 12.22114157 -1.31592022 12.22114157 -2 16 C-6.455 16.495 -6.455 16.495 -11 17 C-9.39112306 20.82448009 -9.39112306 20.82448009 -7.38671875 22.45703125 C-5.48969208 24.56780741 -5.69132079 25.90037826 -5.8125 28.6875 C-5.83957031 29.49574219 -5.86664063 30.30398437 -5.89453125 31.13671875 C-5.92933594 31.75160156 -5.96414062 32.36648437 -6 33 C-5.154375 32.649375 -4.30875 32.29875 -3.4375 31.9375 C1.44468152 30.60599595 5.26354869 31.4211829 10 33 C9.94199219 32.40832031 9.88398437 31.81664063 9.82421875 31.20703125 C9.44964647 24.64666539 9.44964647 24.64666539 12.5 21.0625 C13.7375 20.0415625 13.7375 20.0415625 15 19 C15 18.34 15 17.68 15 17 C12.03 16.67 9.06 16.34 6 16 C5.5359375 14.824375 5.5359375 14.824375 5.0625 13.625 C4.07124962 11.07669872 4.07124962 11.07669872 3 9 C2.34 9 1.68 9 1 9 Z " fill="#F15928" transform="translate(62,84)"/>
<path d="M0 0 C1.90234375 0.2578125 1.90234375 0.2578125 4 1 C4.87890625 2.7421875 4.87890625 2.7421875 5.5625 4.875 C6.90812628 7.9397325 7.5841232 8.81583459 10.69921875 10.1953125 C13.45849873 10.92311234 16.18529952 11.53411854 19 12 C19.71875 13.80859375 19.71875 13.80859375 20 16 C18.53125 17.53515625 18.53125 17.53515625 16.5 19.0625 C13.90781582 21.4134314 13.05449205 22.35820471 12.75390625 25.8984375 C13.03290869 28.64608178 13.41917585 31.30087599 14 34 C12.2578125 35.1328125 12.2578125 35.1328125 10 36 C7.9921875 35.1796875 7.9921875 35.1796875 5.875 33.875 C2.85683559 32.35840992 1.59158817 31.8590653 -1.73828125 32.65234375 C-3.49470863 33.40727708 -5.22953911 34.2153368 -6.93359375 35.08203125 C-7.61550781 35.38496094 -8.29742187 35.68789062 -9 36 C-9.66 35.67 -10.32 35.34 -11 35 C-11 33.68 -11 32.36 -11 31 C-1.48995921 25.47001652 -1.48995921 25.47001652 3 26.125 C6 27 6 27 8 28 C7.7525 26.9275 7.505 25.855 7.25 24.75 C7 21 7 21 8.9375 18.5625 C9.618125 18.046875 10.29875 17.53125 11 17 C9.906875 16.5875 8.81375 16.175 7.6875 15.75 C4.48984058 14.39714409 2.79346574 13.05944156 1 10 C0.443125 11.175625 0.443125 11.175625 -0.125 12.375 C-2.43306306 15.60628829 -4.21616321 16.07506212 -8 17 C-6.68 18.32 -5.36 19.64 -4 21 C-4.66 22.32 -5.32 23.64 -6 25 C-9.10202926 23.61369489 -11.32411399 21.99905084 -13.75 19.625 C-14.36359375 19.03976563 -14.9771875 18.45453125 -15.609375 17.8515625 C-17 16 -17 16 -17 12 C-13.04 11.34 -9.08 10.68 -5 10 C-4.731875 9.0925 -4.46375 8.185 -4.1875 7.25 C-3.10423706 4.28528037 -2.01640543 2.3830246 0 0 Z " fill="#F15928" transform="translate(103,78)"/>
<path d="M0 0 C1.87109375 0.2578125 1.87109375 0.2578125 4 1 C5.09765625 2.7421875 5.09765625 2.7421875 6.0625 4.875 C7.72579716 7.81208802 8.62245737 8.83682479 11.765625 10.1953125 C14.50265866 10.91817011 17.20892778 11.53074793 20 12 C20.2659127 14.96594934 20.34813879 16.50321769 18.609375 18.984375 C17.68898438 19.85835937 17.68898438 19.85835937 16.75 20.75 C16.14671875 21.34296875 15.5434375 21.9359375 14.921875 22.546875 C12.911811 24.06667949 11.46254736 24.58594336 9 25 C8.3125 22.6875 8.3125 22.6875 8 20 C9.4375 18.1875 9.4375 18.1875 11 17 C9.576875 16.690625 9.576875 16.690625 8.125 16.375 C5 15 5 15 3.625 11.875 C3.41875 10.92625 3.2125 9.9775 3 9 C2.34 9 1.68 9 1 9 C0.690625 10.423125 0.690625 10.423125 0.375 11.875 C-1 15 -1 15 -4.125 16.375 C-5.07375 16.58125 -6.0225 16.7875 -7 17 C-6.505 17.33 -6.01 17.66 -5.5 18 C-3.11820439 21.17572747 -3.80831774 24.10246066 -4 28 C-3.195625 27.4740625 -3.195625 27.4740625 -2.375 26.9375 C0.8984529 25.64534754 2.60254388 26.08530028 6 27 C8.73227645 28.21818101 11.37453708 29.56732353 14 31 C13.67 32.65 13.34 34.3 13 36 C7 34 7 34 4.125 32.625 C0.03695084 31.80739017 -1.71233767 33.03261739 -5.16796875 35.15234375 C-7 36 -7 36 -10 35 C-9.93039063 34.20335937 -9.86078125 33.40671875 -9.7890625 32.5859375 C-9.25538736 26.5181581 -9.25538736 26.5181581 -11.3359375 21.04296875 C-12.87312103 19.67538059 -14.43554514 18.3363052 -16 17 C-16.1875 14.33984375 -16.1875 14.33984375 -16 12 C-14.89591797 11.83177734 -14.89591797 11.83177734 -13.76953125 11.66015625 C-7.75891398 10.53299497 -7.75891398 10.53299497 -3.15625 6.796875 C-1.94943975 4.5656793 -0.89952525 2.37057206 0 0 Z " fill="#F15928" transform="translate(22,78)"/>
</svg>
