<?xml version="1.0" standalone="no"?>
<!DOCTYPE svg PUBLIC "-//W3C//DTD SVG 20010904//EN"
 "http://www.w3.org/TR/2001/REC-SVG-20010904/DTD/svg10.dtd">
<svg version="1.0" xmlns="http://www.w3.org/2000/svg"
 width="64.000000pt" height="64.000000pt" viewBox="0 0 128.000000 128.000000"
 preserveAspectRatio="xMidYMid meet">

<g transform="translate(0.000000,128.000000) scale(0.100000,-0.100000)"
fill="#ffffff" stroke="none">
<path d="M716 1268 c-20 -11 -24 -112 -3 -106 6 3 13 23 15 46 2 23 5 42 8 42
19 0 74 -32 83 -48 6 -12 11 -52 11 -89 0 -40 5 -74 12 -81 7 -7 38 -12 70
-12 l58 0 -6 -30 c-4 -19 -1 -38 9 -54 14 -21 14 -26 2 -36 -19 -16 -19 -60 0
-87 13 -18 13 -22 0 -33 -21 -17 -19 -66 4 -89 17 -17 18 -24 8 -53 -12 -33
-12 -33 -47 -21 -43 15 -120 16 -154 4 -46 -18 -51 1 -56 247 -4 168 -8 226
-17 230 -9 2 -13 -11 -13 -47 0 -35 -4 -51 -13 -51 -7 0 -26 -13 -42 -30 -52
-54 -95 -33 -95 47 0 54 -13 63 -91 63 -82 0 -99 -13 -99 -74 0 -71 -31 -85
-87 -36 -47 42 -70 38 -126 -18 -55 -56 -58 -79 -17 -125 49 -56 35 -87 -36
-87 -61 0 -74 -17 -74 -99 0 -78 9 -91 63 -91 80 0 101 -43 47 -95 -16 -16
-30 -38 -30 -50 0 -28 89 -115 117 -115 12 0 38 13 56 30 57 49 87 35 87 -40
0 -25 5 -51 12 -58 16 -16 150 -16 166 0 7 7 12 29 12 51 0 83 48 107 67 34
13 -47 47 -96 58 -85 4 4 -3 28 -15 53 -29 61 -31 146 -2 200 108 211 423 139
422 -96 -1 -106 -73 -197 -175 -220 -49 -11 -100 -3 -172 27 -7 3 -13 -1 -13
-9 0 -23 75 -50 138 -50 77 0 134 26 185 83 72 80 88 185 42 275 -13 27 -22
51 -19 54 3 3 31 8 61 11 46 4 60 10 77 33 17 23 19 32 9 57 -6 17 -7 30 -2
30 36 0 64 81 37 108 -9 9 -9 18 0 37 15 33 15 68 0 83 -9 9 -9 18 0 37 18 39
14 69 -11 93 -22 21 -32 22 -200 22 l-177 0 0 65 c0 66 -14 110 -44 134 -22
19 -81 30 -100 19z m-192 -234 c3 -9 6 -32 6 -52 0 -73 63 -95 123 -42 19 17
37 30 41 30 3 0 6 -71 6 -157 0 -119 4 -165 15 -186 14 -27 13 -29 -25 -63
-43 -39 -80 -106 -80 -146 0 -20 -8 -30 -37 -45 -32 -15 -38 -24 -41 -53 -6
-80 -6 -80 -76 -80 -71 0 -76 4 -76 70 0 70 -65 92 -115 40 -16 -16 -36 -30
-44 -30 -16 0 -91 68 -91 83 0 5 14 25 30 44 52 58 31 123 -40 123 -65 0 -70
5 -70 75 0 70 5 75 68 75 73 0 96 63 42 115 -16 16 -30 36 -30 44 0 16 68 91
83 91 5 0 25 -13 44 -30 60 -53 123 -32 123 41 0 64 5 69 75 69 48 0 64 -4 69
-16z m694 -26 c18 -18 14 -56 -7 -68 -11 -5 -56 -10 -101 -10 -45 0 -90 5
-101 10 -21 12 -25 50 -7 68 16 16 200 16 216 0z m0 -120 c21 -21 14 -58 -14
-68 -28 -11 -146 -13 -182 -4 -26 8 -39 48 -22 69 16 19 199 22 218 3z m0
-120 c18 -18 15 -56 -5 -66 -29 -14 -204 -7 -214 9 -12 20 -11 43 3 57 16 16
200 16 216 0z m-40 -120 c34 -34 -7 -78 -73 -78 -71 0 -115 39 -85 75 16 19
140 21 158 3z"/>
<path d="M406 830 c-48 -15 -95 -53 -118 -97 -17 -31 -20 -45 -12 -53 9 -9 17
0 33 32 59 122 225 127 288 8 29 -54 29 -94 1 -150 -26 -50 -89 -90 -143 -90
-53 0 -117 40 -140 87 -11 23 -26 42 -32 43 -20 0 -15 -23 16 -71 64 -102 204
-116 291 -29 66 66 75 167 23 246 -36 55 -144 94 -207 74z"/>
<path d="M423 738 c-40 -11 -65 -46 -65 -93 0 -109 146 -140 188 -40 16 40 7
92 -21 115 -23 19 -69 27 -102 18z m84 -39 c21 -18 26 -68 9 -94 -47 -72 -158
-13 -126 66 19 45 79 59 117 28z"/>
<path d="M1197 403 c6 -112 -16 -179 -87 -256 -69 -76 -149 -111 -250 -110
-90 1 -145 19 -216 73 -59 44 -64 46 -64 26 0 -20 91 -85 152 -108 73 -27 184
-27 260 2 131 49 228 183 236 328 4 74 -8 132 -26 132 -5 0 -7 -39 -5 -87z"/>
<path d="M948 442 c-7 -10 -36 -45 -64 -76 l-52 -58 -42 46 c-24 25 -46 46
-51 46 -20 0 -5 -28 42 -80 49 -53 50 -54 68 -35 50 53 141 160 141 167 0 15
-29 8 -42 -10z"/>
</g>
</svg>
