<?xml version="1.0" standalone="no"?>
<!DOCTYPE svg PUBLIC "-//W3C//DTD SVG 20010904//EN"
 "http://www.w3.org/TR/2001/REC-SVG-20010904/DTD/svg10.dtd">
<svg version="1.0" xmlns="http://www.w3.org/2000/svg"
 width="64.000000pt" height="64.000000pt" viewBox="0 0 128.000000 128.000000"
 preserveAspectRatio="xMidYMid meet">

<g transform="translate(0.000000,128.000000) scale(0.100000,-0.100000)"
fill="#ffffff" stroke="none">
<path d="M627 1264 c-4 -4 -7 -34 -7 -66 0 -52 2 -58 20 -58 19 0 21 5 18 62
-3 57 -14 79 -31 62z"/>
<path d="M330 1182 c0 -14 50 -101 62 -108 5 -3 14 -2 19 3 13 13 -41 107 -64
111 -9 2 -17 -1 -17 -6z"/>
<path d="M894 1148 c-30 -47 -35 -69 -17 -75 13 -5 75 96 67 109 -10 16 -24 7
-50 -34z"/>
<path d="M546 1060 c-111 -29 -220 -119 -273 -228 -25 -51 -27 -68 -28 -162 0
-99 2 -109 32 -171 30 -60 81 -118 161 -181 19 -15 22 -28 22 -89 0 -65 2 -73
30 -101 17 -16 30 -36 30 -45 0 -8 13 -28 29 -44 43 -43 139 -43 182 0 16 16
29 38 29 47 0 10 12 28 27 40 23 19 27 30 32 103 5 68 10 84 26 93 11 6 47 38
81 72 84 85 108 148 109 277 0 90 -2 99 -37 171 -68 136 -188 217 -336 224
-42 2 -94 -1 -116 -6z m245 -62 c76 -35 129 -85 170 -160 33 -60 34 -68 34
-168 0 -100 -1 -108 -34 -168 -31 -56 -52 -80 -150 -163 -24 -21 -31 -35 -31
-63 l0 -36 -140 0 -140 0 0 25 c0 29 -26 85 -39 85 -22 0 -122 106 -145 153
-101 206 -7 432 212 514 61 22 196 13 263 -19z m-11 -818 c0 -31 -32 -40 -140
-40 -108 0 -140 9 -140 40 0 19 8 20 140 20 132 0 140 -1 140 -20z m-56 -78
c3 -5 -2 -18 -10 -30 -13 -18 -25 -22 -74 -22 -49 0 -61 4 -74 22 -9 12 -16
26 -16 30 0 11 167 10 174 0z"/>
<path d="M587 934 c-4 -4 -7 -15 -7 -24 0 -25 -46 -43 -70 -28 -17 11 -25 8
-57 -25 -33 -32 -36 -40 -25 -57 16 -26 -3 -68 -32 -72 -18 -3 -21 -10 -21
-58 0 -48 3 -55 20 -58 23 -3 50 -58 34 -68 -19 -11 -8 -43 27 -74 32 -28 38
-30 51 -17 20 20 71 1 75 -28 3 -17 10 -20 58 -20 48 0 55 3 58 20 4 28 55 48
74 29 12 -12 20 -8 53 26 34 35 38 43 27 60 -16 26 3 68 32 72 18 3 21 10 21
58 0 48 -3 55 -21 58 -29 4 -48 46 -32 72 11 17 8 25 -25 57 -32 33 -40 36
-57 25 -26 -16 -68 3 -72 32 -3 18 -11 21 -53 24 -28 2 -54 0 -58 -4z m73 -49
c0 -22 90 -60 111 -47 23 15 52 -14 37 -37 -13 -21 25 -111 47 -111 21 0 19
-41 -3 -46 -24 -7 -58 -90 -43 -108 15 -18 -20 -51 -37 -34 -9 9 -17 9 -34 0
-13 -6 -35 -16 -50 -22 -16 -5 -28 -16 -28 -25 0 -21 -37 -19 -44 3 -8 24 -95
55 -114 40 -21 -18 -50 15 -32 36 10 13 9 22 -4 50 -9 19 -16 38 -16 44 0 5
-9 12 -20 15 -23 6 -28 47 -5 47 21 0 59 91 46 111 -14 23 15 52 38 37 21 -13
111 25 111 47 0 8 9 15 20 15 11 0 20 -7 20 -15z"/>
<path d="M596 810 c-55 -17 -106 -85 -106 -142 0 -43 38 -103 81 -127 96 -54
215 18 213 130 -1 98 -96 168 -188 139z m122 -63 c16 -16 26 -40 29 -71 5 -42
3 -48 -30 -81 -29 -29 -42 -35 -77 -35 -89 0 -143 106 -89 174 12 15 31 32 43
37 35 15 97 3 124 -24z"/>
<path d="M120 965 c0 -16 99 -77 112 -69 17 11 6 25 -39 54 -53 33 -73 37 -73
15z"/>
<path d="M1090 953 c-25 -14 -47 -27 -49 -29 -2 -2 -1 -10 3 -19 5 -14 13 -13
59 14 49 28 65 50 42 58 -5 1 -30 -9 -55 -24z"/>
<path d="M45 680 c-12 -20 7 -30 59 -30 50 0 86 17 69 33 -10 11 -121 8 -128
-3z"/>
<path d="M1107 682 c-14 -22 12 -33 69 -30 44 2 59 7 59 18 0 11 -15 16 -62
18 -34 2 -64 -1 -66 -6z"/>
<path d="M168 420 c-46 -29 -57 -43 -40 -54 13 -8 114 54 110 66 -7 21 -22 18
-70 -12z"/>
<path d="M1045 441 c-3 -6 -4 -15 0 -20 9 -16 97 -61 106 -55 17 10 9 24 -32
49 -53 34 -66 39 -74 26z"/>
</g>
</svg>
