<?xml version="1.0" standalone="no"?>
<!DOCTYPE svg PUBLIC "-//W3C//DTD SVG 20010904//EN"
 "http://www.w3.org/TR/2001/REC-SVG-20010904/DTD/svg10.dtd">
<svg version="1.0" xmlns="http://www.w3.org/2000/svg"
 width="64.000000pt" height="64.000000pt" viewBox="0 0 128.000000 128.000000"
 preserveAspectRatio="xMidYMid meet">

<g transform="translate(0.000000,128.000000) scale(0.100000,-0.100000)"
fill="#ffffff" stroke="none">
<path d="M933 1132 c-62 -19 -113 -40 -113 -46 0 -5 12 -22 27 -38 l26 -27
-99 -107 -98 -106 -72 76 c-40 42 -80 76 -90 76 -27 -1 -46 -18 -183 -168
-102 -113 -121 -139 -121 -166 0 -42 32 -76 71 -76 24 0 43 14 98 73 38 39 81
87 96 105 15 17 31 32 35 32 5 0 36 -29 71 -65 63 -66 90 -77 121 -52 11 9
222 238 256 277 2 3 15 -8 28 -25 16 -21 27 -26 34 -19 13 13 54 260 46 280
-7 17 1 19 -133 -24z m87 -107 c-7 -52 -16 -95 -20 -95 -4 0 -13 7 -20 15 -7
8 -16 15 -20 15 -4 0 -70 -67 -145 -150 -75 -82 -143 -150 -149 -150 -7 0 -40
32 -75 70 -34 39 -68 70 -76 70 -7 0 -60 -49 -116 -110 -56 -60 -110 -110
-119 -110 -23 0 -42 24 -38 49 3 21 253 301 268 301 5 0 41 -36 81 -80 40 -44
78 -80 84 -80 10 0 105 99 205 213 l33 38 -23 24 c-13 14 -21 27 -19 30 7 7
153 52 158 49 2 -2 -2 -46 -9 -99z"/>
<path d="M875 708 c-3 -7 -4 -144 -3 -303 l3 -290 70 0 70 0 0 300 0 300 -68
3 c-48 2 -69 -1 -72 -10z m110 -293 l0 -270 -40 0 -40 0 -3 260 c-1 143 0 266
3 273 3 9 18 12 42 10 l38 -3 0 -270z"/>
<path d="M477 594 c-4 -4 -7 -115 -7 -246 l0 -239 68 3 67 3 0 240 0 240 -60
3 c-34 2 -64 0 -68 -4z m101 -241 l-3 -208 -37 -3 -38 -3 0 210 0 211 40 0 40
0 -2 -207z"/>
<path d="M675 528 c-3 -8 -4 -103 -3 -213 l3 -200 68 -3 67 -3 -2 213 -3 213
-63 3 c-45 2 -64 -1 -67 -10z m105 -209 l0 -180 -37 3 -38 3 -3 178 -2 177 40
0 40 0 0 -181z"/>
<path d="M265 458 c-3 -8 -4 -88 -3 -178 l3 -165 70 0 70 0 0 175 0 175 -68 3
c-49 2 -69 -1 -72 -10z m113 -165 l-3 -148 -40 0 -40 0 -3 134 c-1 74 0 141 2
148 3 8 22 13 46 13 l41 0 -3 -147z"/>
</g>
</svg>
