<?xml version="1.0" encoding="UTF-8"?>
<svg version="1.1" xmlns="http://www.w3.org/2000/svg" width="128" height="128">
<path d="M0 0 C12.56077649 -0.1158215 25.12142606 -0.20467903 37.68262768 -0.25906086 C43.51525412 -0.28516077 49.34751538 -0.32056691 55.17993164 -0.37719727 C60.80797734 -0.43150164 66.43567166 -0.46141756 72.06395912 -0.47438622 C74.21181076 -0.48362882 76.35964304 -0.50167751 78.5073452 -0.52865028 C81.5146791 -0.56491891 84.52055896 -0.56994616 87.52807617 -0.56762695 C88.41712143 -0.58560333 89.30616669 -0.60357971 90.22215271 -0.62210083 C94.37965869 -0.58738118 96.48677286 -0.33059366 100.05155945 1.96565247 C102.71676975 6.11624063 102.70439813 9.27664842 102.64697266 14.1171875 C102.65573425 15.0267218 102.66449585 15.9362561 102.67352295 16.87335205 C102.69549687 19.87438926 102.68097116 22.87394829 102.6640625 25.875 C102.6674312 27.96338178 102.67228428 30.05176165 102.67855835 32.14013672 C102.68592697 36.51483851 102.67522418 40.8890295 102.65185547 45.26367188 C102.62336807 50.86958473 102.63977204 56.47430073 102.66971779 62.08016968 C102.68779081 66.39193734 102.68203263 70.70342152 102.66907883 75.01519775 C102.66574485 77.08205304 102.66983159 79.14893411 102.68147659 81.21575928 C102.69418509 84.10546983 102.67480802 86.99324595 102.64697266 89.8828125 C102.66215439 91.16251923 102.66215439 91.16251923 102.67764282 92.46807861 C102.60030371 96.80470353 102.37219299 98.51440789 99.64706421 102.06982422 C97 104 97 104 94 104 C94.05800781 105.31355469 94.11601563 106.62710938 94.17578125 107.98046875 C94.22269048 109.71611023 94.26818939 111.45179023 94.3125 113.1875 C94.35439453 114.05181641 94.39628906 114.91613281 94.43945312 115.80664062 C94.45556641 116.64775391 94.47167969 117.48886719 94.48828125 118.35546875 C94.51446533 119.12528076 94.54064941 119.89509277 94.56762695 120.68823242 C93.63913158 124.46970453 92.17097922 125.74993464 89 128 C85.24976612 128.73856113 81.56250866 128.70073527 77.75 128.6640625 C76.11369629 128.67123795 76.11369629 128.67123795 74.44433594 128.67855835 C72.14126135 128.68195613 69.83813845 128.67276243 67.53515625 128.65185547 C64.01192583 128.6250906 60.49188144 128.65161001 56.96875 128.68359375 C54.72915964 128.68028963 52.48957126 128.67388337 50.25 128.6640625 C49.19780273 128.67418365 48.14560547 128.68430481 47.06152344 128.69473267 C46.07700195 128.67897186 45.09248047 128.66321106 44.078125 128.64697266 C43.21606445 128.64299469 42.35400391 128.63901672 41.46582031 128.63491821 C37.71637979 127.66948368 36.28857294 126.09504789 34 123 C33.29216338 120.07598498 33.31583464 117.24762079 33.35302734 114.25 C33.34426575 113.37947998 33.33550415 112.50895996 33.32647705 111.61206055 C33.30451005 108.74086335 33.31902601 105.87121224 33.3359375 103 C33.33256859 101.00129908 33.32771534 99.00260016 33.32144165 97.00390625 C33.31407398 92.81750968 33.32477259 88.63164696 33.34814453 84.4453125 C33.37663206 79.08151761 33.36022755 73.71897361 33.33028221 68.35522461 C33.3122065 64.22874542 33.31796856 60.10256237 33.33092117 55.97607422 C33.33425442 53.99853365 33.33017097 52.02096611 33.31852341 50.04345703 C33.30581026 47.27824797 33.32519762 44.51505875 33.35302734 41.75 C33.34290619 40.93426514 33.33278503 40.11853027 33.32235718 39.27807617 C33.39960993 35.13070725 33.68075852 33.43173965 36.22305298 29.99356079 C39.20000174 27.85641943 40.47523719 27.36965282 44.078125 27.35302734 C45.55490723 27.32938614 45.55490723 27.32938614 47.06152344 27.30526733 C48.1137207 27.31538849 49.16591797 27.32550964 50.25 27.3359375 C51.34086914 27.33115387 52.43173828 27.32637024 53.55566406 27.32144165 C55.85873865 27.31804387 58.16186155 27.32723757 60.46484375 27.34814453 C63.98807417 27.3749094 67.50811856 27.34838999 71.03125 27.31640625 C73.27084036 27.31971037 75.51042874 27.32611663 77.75 27.3359375 C78.80219727 27.32581635 79.85439453 27.31569519 80.93847656 27.30526733 C81.92299805 27.32102814 82.90751953 27.33678894 83.921875 27.35302734 C85.21496582 27.35899429 85.21496582 27.35899429 86.53417969 27.36508179 C90.20059603 28.30913862 91.70505611 30.04032373 94 33 C94.63923645 36.06892395 94.63923645 36.06892395 94.65942383 39.53442383 C94.67906693 40.83539505 94.69871002 42.13636627 94.71894836 43.47676086 C94.7155054 44.88685238 94.71152041 46.29694267 94.70703125 47.70703125 C94.72015302 49.1572222 94.73545874 50.6073949 94.75285339 52.05754089 C94.79266154 55.86341007 94.80289101 59.66880071 94.80688477 63.47485352 C94.8162243 67.36294025 94.85364283 71.25074674 94.88867188 75.13867188 C94.9532048 82.75911703 94.98647986 90.37927545 95 98 C97.51052379 94.18850188 97.28206391 90.29529993 97.25878906 85.8984375 C97.2622937 85.08497864 97.26579834 84.27151978 97.26940918 83.43341064 C97.27820444 80.7471867 97.27238514 78.06122658 97.265625 75.375 C97.26697228 73.50699818 97.26891335 71.63899671 97.27142334 69.77099609 C97.27437161 65.85706238 97.27008647 61.94321998 97.26074219 58.02929688 C97.24934784 53.01212291 97.2559089 47.99516294 97.26788712 42.97799683 C97.2751137 39.12099597 97.2728141 35.26404584 97.26763153 31.40704346 C97.26629725 29.55706761 97.26793501 27.70708717 97.27259064 25.8571167 C97.27766895 23.2718078 97.26992728 20.68684558 97.25878906 18.1015625 C97.26283752 17.33676575 97.26688599 16.57196899 97.27105713 15.78399658 C97.2590746 10.55863024 97.2590746 10.55863024 95 6 C91.0721714 4.6907238 87.31041188 4.82243124 83.21411133 4.79467773 C82.31634476 4.78477814 81.41857819 4.77487854 80.49360657 4.76467896 C77.52310838 4.73306544 74.5525942 4.70830705 71.58203125 4.68359375 C69.52365196 4.6630241 67.46527689 4.64202762 65.40690613 4.62062073 C59.98673928 4.56540122 54.56653432 4.51599137 49.14630127 4.46777344 C43.61637984 4.41755757 38.08651383 4.36187194 32.55664062 4.30664062 C21.70447441 4.19906051 10.8522601 4.09761517 0 4 C0 2.68 0 1.36 0 0 Z M39 35 C39 35.99 39 36.98 39 38 C43.29 38 47.58 38 52 38 C52.66 39.98 53.32 41.96 54 44 C60.6 44 67.2 44 74 44 C74.66 42.02 75.32 40.04 76 38 C80.29 38 84.58 38 89 38 C88.4794022 34.03286523 88.4794022 34.03286523 86.19041443 32.76716614 C83.96108075 31.986369 82.30586197 31.74112733 79.95336914 31.7253418 C79.16897964 31.71580978 78.38459015 31.70627777 77.57643127 31.69645691 C76.73781052 31.69736832 75.89918976 31.69827972 75.03515625 31.69921875 C73.72967079 31.69279106 73.72967079 31.69279106 72.39781189 31.68623352 C70.55956898 31.68049799 68.72130337 31.67998424 66.88305664 31.68432617 C64.07593935 31.68748488 61.26987759 31.66402213 58.46289062 31.63867188 C56.67448049 31.63639862 54.88606753 31.63569551 53.09765625 31.63671875 C51.84276146 31.62290413 51.84276146 31.62290413 50.56251526 31.60881042 C45.95623571 31.64524221 42.65273141 31.85147573 39 35 Z M38 42 C38 65.1 38 88.2 38 112 C55.16 112 72.32 112 90 112 C90 88.9 90 65.8 90 42 C86.7 42 83.4 42 80 42 C79.67 43.65 79.34 45.3 79 47 C69.43 47 59.86 47 50 47 C49.34 45.35 48.68 43.7 48 42 C44.7 42 41.4 42 38 42 Z M38 116 C39.26860766 121.7467754 39.26860766 121.7467754 41.87208557 123.35783386 C44.04130709 124.01246573 45.78470471 124.25948039 48.04663086 124.2746582 C49.2232151 124.28895622 49.2232151 124.28895622 50.42356873 124.30354309 C51.26218948 124.30263168 52.10081024 124.30172028 52.96484375 124.30078125 C54.27032921 124.30720894 54.27032921 124.30720894 55.60218811 124.31376648 C57.44043102 124.31950201 59.27869663 124.32001576 61.11694336 124.31567383 C63.92406065 124.31251512 66.73012241 124.33597787 69.53710938 124.36132812 C71.32551951 124.36360138 73.11393247 124.36430449 74.90234375 124.36328125 C75.73894028 124.372491 76.5755368 124.38170074 77.43748474 124.39118958 C82.02686984 124.35489141 85.42195819 124.21178211 89 121 C89.33 119.35 89.66 117.7 90 116 C72.84 116 55.68 116 38 116 Z " fill="#F15A28" transform="translate(26,0)"/>
<path d="M0 0 C0.79019531 0.04511719 1.58039062 0.09023438 2.39453125 0.13671875 C2.98621094 0.19472656 3.57789063 0.25273438 4.1875 0.3125 C4.1875 1.6325 4.1875 2.9525 4.1875 4.3125 C3.62160156 4.49425781 3.05570313 4.67601562 2.47265625 4.86328125 C1.37244141 5.24033203 1.37244141 5.24033203 0.25 5.625 C-0.84634766 5.99044922 -0.84634766 5.99044922 -1.96484375 6.36328125 C-4.17182024 7.22490441 -4.17182024 7.22490441 -4.8125 10.3125 C-4.93107936 12.68837576 -4.9895529 15.06737984 -5.01782227 17.44604492 C-5.02772186 18.16824722 -5.03762146 18.89044952 -5.04782104 19.63453674 C-5.07939759 22.02064745 -5.10417822 24.40677806 -5.12890625 26.79296875 C-5.1494791 28.44778459 -5.17047566 30.10259521 -5.19187927 31.75740051 C-5.24706575 36.11225153 -5.29649013 40.46714971 -5.34472656 44.82208252 C-5.40380018 50.0475963 -5.47000933 55.27302393 -5.53502655 60.49846649 C-5.63299302 68.43642503 -5.72187846 76.3744389 -5.8125 84.3125 C11.3475 84.3125 28.5075 84.3125 46.1875 84.3125 C46.1875 85.6325 46.1875 86.9525 46.1875 88.3125 C29.0275 88.3125 11.8675 88.3125 -5.8125 88.3125 C-5.1525 91.2825 -4.4925 94.2525 -3.8125 97.3125 C-0.1469771 99.14526145 1.03073036 99.56815764 4.86425781 99.63134766 C5.78491028 99.65121735 6.70556274 99.67108704 7.65411377 99.69155884 C8.63966248 99.70311005 9.62521118 99.71466125 10.640625 99.7265625 C11.65598328 99.74592865 12.67134155 99.7652948 13.71746826 99.7852478 C16.95739365 99.84498099 20.19735468 99.89140428 23.4375 99.9375 C25.63543208 99.97568551 27.83334928 100.01473758 30.03125 100.0546875 C35.41653456 100.15067735 40.80190883 100.23574323 46.1875 100.3125 C46.1875 101.6325 46.1875 102.9525 46.1875 104.3125 C42.2275 104.3125 38.2675 104.3125 34.1875 104.3125 C34.1875 105.3025 34.1875 106.2925 34.1875 107.3125 C38.1475 107.6425 42.1075 107.9725 46.1875 108.3125 C46.1875 109.6325 46.1875 110.9525 46.1875 112.3125 C45.05570313 112.34988281 43.92390625 112.38726562 42.7578125 112.42578125 C41.27600795 112.49143082 39.79423861 112.55787851 38.3125 112.625 C37.56613281 112.64755859 36.81976563 112.67011719 36.05078125 112.69335938 C34.087896 112.79061945 32.13421678 113.04292294 30.1875 113.3125 C29.5275 114.3025 28.8675 115.2925 28.1875 116.3125 C34.1275 116.3125 40.0675 116.3125 46.1875 116.3125 C46.1875 117.6325 46.1875 118.9525 46.1875 120.3125 C38.9275 120.3125 31.6675 120.3125 24.1875 120.3125 C24.1875 117.0125 24.1875 113.7125 24.1875 110.3125 C26.1675 109.3225 26.1675 109.3225 28.1875 108.3125 C28.1875 107.3225 28.1875 106.3325 28.1875 105.3125 C27.21401611 105.30839111 26.24053223 105.30428223 25.23754883 105.30004883 C21.61217921 105.27821215 17.98788798 105.22387784 14.36303711 105.15991211 C12.79673631 105.13677118 11.23028078 105.12234552 9.66381836 105.11694336 C7.40641297 105.10762412 5.15142779 105.06657767 2.89453125 105.01953125 C1.85048882 105.02543022 1.85048882 105.02543022 0.78535461 105.03144836 C-2.73740968 104.92665168 -4.64033991 104.43893354 -7.49687195 102.34111023 C-10.65108962 98.21570853 -10.51949643 95.25486856 -10.45947266 90.1953125 C-10.47261505 88.83101105 -10.47261505 88.83101105 -10.48602295 87.43914795 C-10.50799687 84.43811074 -10.49347116 81.43855171 -10.4765625 78.4375 C-10.4799312 76.34911822 -10.48478428 74.26073835 -10.49105835 72.17236328 C-10.49842697 67.79766149 -10.48772418 63.4234705 -10.46435547 59.04882812 C-10.43586807 53.44291527 -10.45227204 47.83819927 -10.48221779 42.23233032 C-10.50029081 37.92056266 -10.49453263 33.60907848 -10.48157883 29.29730225 C-10.47824485 27.23044696 -10.48233159 25.16356589 -10.49397659 23.09674072 C-10.50668509 20.20703017 -10.48730802 17.31925405 -10.45947266 14.4296875 C-10.46959381 13.57654968 -10.47971497 12.72341187 -10.49014282 11.84442139 C-10.41252441 7.4921355 -10.20490879 5.8121711 -7.42562866 2.27319336 C-4.58262883 0.14002212 -3.47897932 -0.25962532 0 0 Z " fill="#F15928" transform="translate(9.8125,-0.3125)"/>
<path d="M0 0 C5.48050752 3.25896336 10.10812986 8.11737654 12.48046875 14.08984375 C13.09535137 19.95982785 13.7357539 26.70823691 10.91796875 32.08984375 C6.47003817 37.56421985 1.56419061 42.61206841 -5.69140625 43.4609375 C-13.32184034 43.60255036 -18.77961123 43.41282043 -24.51953125 38.08984375 C-29.69450817 32.88826027 -31.82059569 28.69131284 -31.95703125 21.33984375 C-31.84088279 13.88311284 -30.21413025 9.76554455 -24.9921875 4.5703125 C-17.95448689 -1.64363689 -8.99931987 -3.2509171 0 0 Z M-23.33203125 10.08984375 C-27.17581001 15.36131176 -27.43683832 20.74657881 -26.51953125 27.08984375 C-24.2021865 31.85673078 -20.57908946 36.29088972 -15.51953125 38.08984375 C-8.35751132 38.96978088 -3.31343217 38.46483016 2.48046875 34.08984375 C6.47007939 29.78526385 7.61833128 26.70525866 7.54296875 20.90234375 C7.53394531 20.00128906 7.52492187 19.10023437 7.515625 18.171875 C7.50402344 17.48480469 7.49242187 16.79773438 7.48046875 16.08984375 C3.96247108 18.96820548 0.6359574 21.88522698 -2.48046875 25.1953125 C-3.00157227 25.74219727 -3.52267578 26.28908203 -4.05957031 26.85253906 C-5.10838969 27.96081092 -6.14453506 29.08122866 -7.16699219 30.21386719 C-10.83798486 34.06828882 -10.83798486 34.06828882 -14.11328125 34.171875 C-16.91609639 32.91151819 -18.70946692 31.50053934 -20.89453125 29.33984375 C-21.60351562 28.664375 -22.3125 27.98890625 -23.04296875 27.29296875 C-24.51953125 25.08984375 -24.51953125 25.08984375 -24.34765625 22.47265625 C-23.26091862 19.3457225 -22.26396509 17.96761428 -19.51953125 16.08984375 C-18.46765625 16.35796875 -17.41578125 16.62609375 -16.33203125 16.90234375 C-12.52300341 17.51172255 -12.52300341 17.51172255 -10.20703125 15.23828125 C-8.64703598 13.62183878 -7.12050051 11.97229032 -5.6328125 10.2890625 C-3.64473632 8.22014034 -2.1463512 7.16310427 0.48046875 6.08984375 C-7.68264193 1.73618472 -17.2705099 3.16731085 -23.33203125 10.08984375 Z M-2.51953125 13.08984375 C-3.94687578 14.58114262 -5.33720348 16.10804566 -6.70703125 17.65234375 C-10.88505392 21.97909862 -10.88505392 21.97909862 -13.66796875 22.46484375 C-15.58203125 22.15234375 -15.58203125 22.15234375 -18.51953125 21.08984375 C-18.96244048 25.09330398 -18.96244048 25.09330398 -16.51953125 27.33984375 C-15.85953125 27.91734375 -15.19953125 28.49484375 -14.51953125 29.08984375 C-10.44577094 27.47973848 -7.75446056 24.55162104 -4.76953125 21.46484375 C-4.26292969 20.94921875 -3.75632812 20.43359375 -3.234375 19.90234375 C-1.99149223 18.63601036 -0.75487849 17.36352935 0.48046875 16.08984375 C0.15046875 15.09984375 -0.17953125 14.10984375 -0.51953125 13.08984375 C-1.17953125 13.08984375 -1.83953125 13.08984375 -2.51953125 13.08984375 Z " fill="#F15928" transform="translate(99.51953125,56.91015625)"/>
<path d="M0 0 C3.96 0 7.92 0 12 0 C12.33 1.32 12.66 2.64 13 4 C14.010625 3.690625 15.02125 3.38125 16.0625 3.0625 C20.38105944 2.99395144 20.95408437 3.24825731 24 6 C26.75174269 9.04591563 27.00604856 9.61894056 26.9375 13.9375 C26.628125 14.948125 26.31875 15.95875 26 17 C27.32 17.33 28.64 17.66 30 18 C30 21.96 30 25.92 30 30 C28.68 30.33 27.36 30.66 26 31 C26.309375 32.010625 26.61875 33.02125 26.9375 34.0625 C27.00604856 38.38105944 26.75174269 38.95408437 24 42 C20.95408437 44.75174269 20.38105944 45.00604856 16.0625 44.9375 C15.051875 44.628125 14.04125 44.31875 13 44 C12.67 45.32 12.34 46.64 12 48 C8.04 48 4.08 48 0 48 C-0.33 46.68 -0.66 45.36 -1 44 C-2.010625 44.309375 -3.02125 44.61875 -4.0625 44.9375 C-8.38105944 45.00604856 -8.95408437 44.75174269 -12 42 C-14.75174269 38.95408437 -15.00604856 38.38105944 -14.9375 34.0625 C-14.628125 33.051875 -14.31875 32.04125 -14 31 C-15.32 30.67 -16.64 30.34 -18 30 C-18 26.04 -18 22.08 -18 18 C-16.68 17.67 -15.36 17.34 -14 17 C-14.309375 15.989375 -14.61875 14.97875 -14.9375 13.9375 C-15.00604856 9.61894056 -14.75174269 9.04591563 -12 6 C-8.95408437 3.24825731 -8.38105944 2.99395144 -4.0625 3.0625 C-3.051875 3.371875 -2.04125 3.68125 -1 4 C-0.67 2.68 -0.34 1.36 0 0 Z M4 4 C4 5.65 4 7.3 4 9 C2.37512529 9.16788373 0.75009558 9.33426787 -0.875 9.5 C-2.23238281 9.63921875 -2.23238281 9.63921875 -3.6171875 9.78125 C-6 10 -6 10 -8 10 C-7.979375 11.051875 -7.95875 12.10375 -7.9375 13.1875 C-7.98896802 16.32704904 -8.26517187 18.96883396 -9 22 C-10.65 22 -12.3 22 -14 22 C-14 23.32 -14 24.64 -14 26 C-12.35 26 -10.7 26 -9 26 C-8.83211627 27.62487471 -8.66573213 29.24990442 -8.5 30.875 C-8.4071875 31.77992187 -8.314375 32.68484375 -8.21875 33.6171875 C-8 36 -8 36 -8 38 C-6.4221875 37.9690625 -6.4221875 37.9690625 -4.8125 37.9375 C-1.67295096 37.98896802 0.96883396 38.26517187 4 39 C4 40.65 4 42.3 4 44 C5.32 44 6.64 44 8 44 C8 42.35 8 40.7 8 39 C9.62487471 38.83211627 11.24990442 38.66573213 12.875 38.5 C13.77992187 38.4071875 14.68484375 38.314375 15.6171875 38.21875 C18 38 18 38 20 38 C19.979375 36.948125 19.95875 35.89625 19.9375 34.8125 C19.98896802 31.67295096 20.26517187 29.03116604 21 26 C22.65 26 24.3 26 26 26 C26 24.68 26 23.36 26 22 C24.35 22 22.7 22 21 22 C20.83211627 20.37512529 20.66573213 18.75009558 20.5 17.125 C20.4071875 16.22007813 20.314375 15.31515625 20.21875 14.3828125 C20 12 20 12 20 10 C18.4221875 10.0309375 18.4221875 10.0309375 16.8125 10.0625 C13.67295096 10.01103198 11.03116604 9.73482813 8 9 C8 7.35 8 5.7 8 4 C6.68 4 5.36 4 4 4 Z " fill="#F15A29" transform="translate(26,8)"/>
<path d="M0 0 C3.125 1.875 3.125 1.875 5 5 C5.98876625 10.02622846 5.7769173 13.70513784 3.125 18.125 C-1.29486216 20.7769173 -4.97377154 20.98876625 -10 20 C-13.125 18.125 -13.125 18.125 -15 15 C-15.98876625 9.97377154 -15.7769173 6.29486216 -13.125 1.875 C-8.70513784 -0.7769173 -5.02622846 -0.98876625 0 0 Z M-10 7 C-10.33333333 10 -10.33333333 10 -10 13 C-8.11499729 15.31563087 -8.11499729 15.31563087 -5 15.25 C-1.88500271 15.31563087 -1.88500271 15.31563087 0 13 C0.33333333 10 0.33333333 10 0 7 C-1.88500271 4.68436913 -1.88500271 4.68436913 -5 4.75 C-8.11499729 4.68436913 -8.11499729 4.68436913 -10 7 Z " fill="#F15928" transform="translate(37,22)"/>
<path d="M0 0 C3.3 0 6.6 0 10 0 C10 1.32 10 2.64 10 4 C8.02 4 6.04 4 4 4 C4 5.65 4 7.3 4 9 C-0.32734391 11.22923777 -3.28400182 10.92470553 -8 10 C-7.79375 11.051875 -7.5875 12.10375 -7.375 13.1875 C-7.00036896 16.99624887 -7.28369933 18.66835752 -9 22 C-10.65 22 -12.3 22 -14 22 C-14 23.98 -14 25.96 -14 28 C-15.32 28 -16.64 28 -18 28 C-18 24.7 -18 21.4 -18 18 C-16.68 17.67 -15.36 17.34 -14 17 C-14.309375 15.989375 -14.61875 14.97875 -14.9375 13.9375 C-15.00604856 9.61894056 -14.75174269 9.04591563 -12 6 C-8.95408437 3.24825731 -8.38105944 2.99395144 -4.0625 3.0625 C-3.051875 3.371875 -2.04125 3.68125 -1 4 C-0.67 2.68 -0.34 1.36 0 0 Z " fill="#F15A29" transform="translate(48,54)"/>
<path d="M0 0 C8.58 0 17.16 0 26 0 C26 1.32 26 2.64 26 4 C17.42 4 8.84 4 0 4 C0 2.68 0 1.36 0 0 Z " fill="#F15A29" transform="translate(84,8)"/>
<path d="M0 0 C5.28 0 10.56 0 16 0 C16 1.32 16 2.64 16 4 C10.72 4 5.44 4 0 4 C0 2.68 0 1.36 0 0 Z " fill="#F15A29" transform="translate(82,118)"/>
<path d="M0 0 C0.721875 0.103125 1.44375 0.20625 2.1875 0.3125 C2.1875 1.9625 2.1875 3.6125 2.1875 5.3125 C1.548125 5.580625 0.90875 5.84875 0.25 6.125 C-2.14381686 7.19917752 -2.14381686 7.19917752 -2.8125 10.3125 C-4.4625 10.3125 -6.1125 10.3125 -7.8125 10.3125 C-8.125 8.125 -8.125 8.125 -7.8125 5.3125 C-4.02871622 0.44763514 -4.02871622 0.44763514 0 0 Z " fill="#F15A28" transform="translate(51.8125,67.6875)"/>
<path d="M0 0 C5.28 0 10.56 0 16 0 C16 1.32 16 2.64 16 4 C10.72 4 5.44 4 0 4 C0 2.68 0 1.36 0 0 Z " fill="#F15A29" transform="translate(82,36)"/>
<path d="M0 0 C3.96 0 7.92 0 12 0 C12 1.32 12 2.64 12 4 C8.04 4 4.08 4 0 4 C0 2.68 0 1.36 0 0 Z " fill="#F15A29" transform="translate(16,92)"/>
<path d="M0 0 C1.65 0 3.3 0 5 0 C5 1.32 5 2.64 5 4 C3.35 4 1.7 4 0 4 C0 2.68 0 1.36 0 0 Z " fill="#F34820" transform="translate(18,0)"/>
<path d="M0 0 C1.32 0 2.64 0 4 0 C4 1.32 4 2.64 4 4 C2.68 4 1.36 4 0 4 C0 2.68 0 1.36 0 0 Z " fill="#F15A29" transform="translate(8,92)"/>
<path d="M0 0 C1.32 0 2.64 0 4 0 C4 1.32 4 2.64 4 4 C2.68 4 1.36 4 0 4 C0 2.68 0 1.36 0 0 Z " fill="#F15A29" transform="translate(114,8)"/>
</svg>
